<?xml version="1.0" encoding="utf-8" standalone="no"?>
<!DOCTYPE svg PUBLIC "-//W3C//DTD SVG 1.1//EN"
  "http://www.w3.org/Graphics/SVG/1.1/DTD/svg11.dtd">
<svg xmlns:xlink="http://www.w3.org/1999/xlink" width="1000.8pt" height="413.543914pt" viewBox="0 0 1000.8 413.543914" xmlns="http://www.w3.org/2000/svg" version="1.1">
 <metadata>
  <rdf:RDF xmlns:dc="http://purl.org/dc/elements/1.1/" xmlns:cc="http://creativecommons.org/ns#" xmlns:rdf="http://www.w3.org/1999/02/22-rdf-syntax-ns#">
   <cc:Work>
    <dc:type rdf:resource="http://purl.org/dc/dcmitype/StillImage"/>
    <dc:date>2025-08-31T21:40:30.110905</dc:date>
    <dc:format>image/svg+xml</dc:format>
    <dc:creator>
     <cc:Agent>
      <dc:title>Matplotlib v3.6.3, https://matplotlib.org/</dc:title>
     </cc:Agent>
    </dc:creator>
   </cc:Work>
  </rdf:RDF>
 </metadata>
 <defs>
  <style type="text/css">*{stroke-linejoin: round; stroke-linecap: butt}</style>
 </defs>
 <g id="figure_1">
  <g id="patch_1">
   <path d="M 0 413.543914 
L 1000.8 413.543914 
L 1000.8 0 
L 0 0 
z
" style="fill: #ffffff"/>
  </g>
  <g id="axes_1">
   <g id="patch_2">
    <path d="M 52.036364 106.331098 
L 157.53369 106.331098 
L 157.53369 46.328535 
L 52.036364 46.328535 
L 52.036364 106.331098 
z
" clip-path="url(#pab60dc25be)" style="fill: none; stroke: #000000; stroke-width: 2; stroke-linejoin: miter"/>
   </g>
   <g id="patch_3">
    <path d="M 183.908021 106.331098 
L 289.405348 106.331098 
L 289.405348 46.328535 
L 183.908021 46.328535 
L 183.908021 106.331098 
z
" clip-path="url(#pab60dc25be)" style="fill: none; stroke: #000000; stroke-width: 2; stroke-linejoin: miter"/>
   </g>
   <g id="patch_4">
    <path d="M 315.779679 106.331098 
L 421.277005 106.331098 
L 421.277005 46.328535 
L 315.779679 46.328535 
L 315.779679 106.331098 
z
" clip-path="url(#pab60dc25be)" style="fill: none; stroke: #000000; stroke-width: 2; stroke-linejoin: miter"/>
   </g>
   <g id="patch_5">
    <path d="M 447.651337 106.331098 
L 553.148663 106.331098 
L 553.148663 46.328535 
L 447.651337 46.328535 
L 447.651337 106.331098 
z
" clip-path="url(#pab60dc25be)" style="fill: none; stroke: #000000; stroke-width: 2; stroke-linejoin: miter"/>
   </g>
   <g id="patch_6">
    <path d="M 579.522995 106.331098 
L 685.020321 106.331098 
L 685.020321 46.328535 
L 579.522995 46.328535 
L 579.522995 106.331098 
z
" clip-path="url(#pab60dc25be)" style="fill: none; stroke: #000000; stroke-width: 2; stroke-linejoin: miter"/>
   </g>
   <g id="patch_7">
    <path d="M 711.394652 106.331098 
L 816.891979 106.331098 
L 816.891979 46.328535 
L 711.394652 46.328535 
L 711.394652 106.331098 
z
" clip-path="url(#pab60dc25be)" style="fill: none; stroke: #000000; stroke-width: 2; stroke-linejoin: miter"/>
   </g>
   <g id="patch_8">
    <path d="M 843.26631 106.331098 
L 948.763636 106.331098 
L 948.763636 46.328535 
L 843.26631 46.328535 
L 843.26631 106.331098 
z
" clip-path="url(#pab60dc25be)" style="fill: none; stroke: #000000; stroke-width: 2; stroke-linejoin: miter"/>
   </g>
   <g id="line2d_1">
    <path d="M 236.656684 106.331098 
L 236.656684 201.335156 
" clip-path="url(#pab60dc25be)" style="fill: none; stroke-dasharray: 1.5,2.475; stroke-dashoffset: 0; stroke: #e69f00; stroke-width: 1.5"/>
   </g>
   <g id="line2d_2">
    <path d="M 500.4 106.331098 
L 500.4 201.335156 
" clip-path="url(#pab60dc25be)" style="fill: none; stroke-dasharray: 1.5,2.475; stroke-dashoffset: 0; stroke: #56b4e9; stroke-width: 1.5"/>
   </g>
   <g id="line2d_3">
    <path d="M 764.143316 106.331098 
L 764.143316 201.335156 
" clip-path="url(#pab60dc25be)" style="fill: none; stroke-dasharray: 1.5,2.475; stroke-dashoffset: 0; stroke: #009e73; stroke-width: 1.5"/>
   </g>
   <g id="line2d_4">
    <path d="M 368.528342 106.331098 
L 368.528342 311.339856 
" clip-path="url(#pab60dc25be)" style="fill: none; stroke-dasharray: 1.5,2.475; stroke-dashoffset: 0; stroke: #f0e442; stroke-width: 1.5"/>
   </g>
   <g id="line2d_5">
    <path d="M 632.271658 106.331098 
L 632.271658 311.339856 
" clip-path="url(#pab60dc25be)" style="fill: none; stroke-dasharray: 1.5,2.475; stroke-dashoffset: 0; stroke: #0072b2; stroke-width: 1.5"/>
   </g>
   <g id="line2d_6">
    <path d="M 896.014973 106.331098 
L 896.014973 311.339856 
" clip-path="url(#pab60dc25be)" style="fill: none; stroke-dasharray: 1.5,2.475; stroke-dashoffset: 0; stroke: #d55e00; stroke-width: 1.5"/>
   </g>
   <g id="text_1">
    <!-- Plan -->
    <g style="fill: #333333" transform="translate(93.084636 79.365129) scale(0.11 -0.11)">
     <defs>
      <path id="DejaVuSans-50" d="M 1259 4147 
L 1259 2394 
L 2053 2394 
Q 2494 2394 2734 2622 
Q 2975 2850 2975 3272 
Q 2975 3691 2734 3919 
Q 2494 4147 2053 4147 
L 1259 4147 
z
M 628 4666 
L 2053 4666 
Q 2838 4666 3239 4311 
Q 3641 3956 3641 3272 
Q 3641 2581 3239 2228 
Q 2838 1875 2053 1875 
L 1259 1875 
L 1259 0 
L 628 0 
L 628 4666 
z
" transform="scale(0.015625)"/>
      <path id="DejaVuSans-6c" d="M 603 4863 
L 1178 4863 
L 1178 0 
L 603 0 
L 603 4863 
z
" transform="scale(0.015625)"/>
      <path id="DejaVuSans-61" d="M 2194 1759 
Q 1497 1759 1228 1600 
Q 959 1441 959 1056 
Q 959 750 1161 570 
Q 1363 391 1709 391 
Q 2188 391 2477 730 
Q 2766 1069 2766 1631 
L 2766 1759 
L 2194 1759 
z
M 3341 1997 
L 3341 0 
L 2766 0 
L 2766 531 
Q 2569 213 2275 61 
Q 1981 -91 1556 -91 
Q 1019 -91 701 211 
Q 384 513 384 1019 
Q 384 1609 779 1909 
Q 1175 2209 1959 2209 
L 2766 2209 
L 2766 2266 
Q 2766 2663 2505 2880 
Q 2244 3097 1772 3097 
Q 1472 3097 1187 3025 
Q 903 2953 641 2809 
L 641 3341 
Q 956 3463 1253 3523 
Q 1550 3584 1831 3584 
Q 2591 3584 2966 3190 
Q 3341 2797 3341 1997 
z
" transform="scale(0.015625)"/>
      <path id="DejaVuSans-6e" d="M 3513 2113 
L 3513 0 
L 2938 0 
L 2938 2094 
Q 2938 2591 2744 2837 
Q 2550 3084 2163 3084 
Q 1697 3084 1428 2787 
Q 1159 2491 1159 1978 
L 1159 0 
L 581 0 
L 581 3500 
L 1159 3500 
L 1159 2956 
Q 1366 3272 1645 3428 
Q 1925 3584 2291 3584 
Q 2894 3584 3203 3211 
Q 3513 2838 3513 2113 
z
" transform="scale(0.015625)"/>
     </defs>
     <use xlink:href="#DejaVuSans-50"/>
     <use xlink:href="#DejaVuSans-6c" x="60.302734"/>
     <use xlink:href="#DejaVuSans-61" x="88.085938"/>
     <use xlink:href="#DejaVuSans-6e" x="149.365234"/>
    </g>
   </g>
   <g id="patch_9">
    <path d="M 159.533014 76.329816 
Q 170.719274 76.329816 179.669466 76.329816 
" style="fill: none; stroke: #000000; stroke-width: 2; stroke-linecap: round"/>
    <path d="M 175.669466 74.329816 
L 179.669466 76.329816 
L 175.669466 78.329816 
" style="fill: none; stroke: #000000; stroke-width: 2; stroke-linecap: round"/>
   </g>
   <g id="text_2">
    <!-- Code -->
    <g style="fill: #333333" transform="translate(222.574966 79.365129) scale(0.11 -0.11)">
     <defs>
      <path id="DejaVuSans-43" d="M 4122 4306 
L 4122 3641 
Q 3803 3938 3442 4084 
Q 3081 4231 2675 4231 
Q 1875 4231 1450 3742 
Q 1025 3253 1025 2328 
Q 1025 1406 1450 917 
Q 1875 428 2675 428 
Q 3081 428 3442 575 
Q 3803 722 4122 1019 
L 4122 359 
Q 3791 134 3420 21 
Q 3050 -91 2638 -91 
Q 1578 -91 968 557 
Q 359 1206 359 2328 
Q 359 3453 968 4101 
Q 1578 4750 2638 4750 
Q 3056 4750 3426 4639 
Q 3797 4528 4122 4306 
z
" transform="scale(0.015625)"/>
      <path id="DejaVuSans-6f" d="M 1959 3097 
Q 1497 3097 1228 2736 
Q 959 2375 959 1747 
Q 959 1119 1226 758 
Q 1494 397 1959 397 
Q 2419 397 2687 759 
Q 2956 1122 2956 1747 
Q 2956 2369 2687 2733 
Q 2419 3097 1959 3097 
z
M 1959 3584 
Q 2709 3584 3137 3096 
Q 3566 2609 3566 1747 
Q 3566 888 3137 398 
Q 2709 -91 1959 -91 
Q 1206 -91 779 398 
Q 353 888 353 1747 
Q 353 2609 779 3096 
Q 1206 3584 1959 3584 
z
" transform="scale(0.015625)"/>
      <path id="DejaVuSans-64" d="M 2906 2969 
L 2906 4863 
L 3481 4863 
L 3481 0 
L 2906 0 
L 2906 525 
Q 2725 213 2448 61 
Q 2172 -91 1784 -91 
Q 1150 -91 751 415 
Q 353 922 353 1747 
Q 353 2572 751 3078 
Q 1150 3584 1784 3584 
Q 2172 3584 2448 3432 
Q 2725 3281 2906 2969 
z
M 947 1747 
Q 947 1113 1208 752 
Q 1469 391 1925 391 
Q 2381 391 2643 752 
Q 2906 1113 2906 1747 
Q 2906 2381 2643 2742 
Q 2381 3103 1925 3103 
Q 1469 3103 1208 2742 
Q 947 2381 947 1747 
z
" transform="scale(0.015625)"/>
      <path id="DejaVuSans-65" d="M 3597 1894 
L 3597 1613 
L 953 1613 
Q 991 1019 1311 708 
Q 1631 397 2203 397 
Q 2534 397 2845 478 
Q 3156 559 3463 722 
L 3463 178 
Q 3153 47 2828 -22 
Q 2503 -91 2169 -91 
Q 1331 -91 842 396 
Q 353 884 353 1716 
Q 353 2575 817 3079 
Q 1281 3584 2069 3584 
Q 2775 3584 3186 3129 
Q 3597 2675 3597 1894 
z
M 3022 2063 
Q 3016 2534 2758 2815 
Q 2500 3097 2075 3097 
Q 1594 3097 1305 2825 
Q 1016 2553 972 2059 
L 3022 2063 
z
" transform="scale(0.015625)"/>
     </defs>
     <use xlink:href="#DejaVuSans-43"/>
     <use xlink:href="#DejaVuSans-6f" x="69.824219"/>
     <use xlink:href="#DejaVuSans-64" x="131.005859"/>
     <use xlink:href="#DejaVuSans-65" x="194.482422"/>
    </g>
   </g>
   <g id="patch_10">
    <path d="M 291.404671 76.329816 
Q 302.590931 76.329816 311.541123 76.329816 
" style="fill: none; stroke: #000000; stroke-width: 2; stroke-linecap: round"/>
    <path d="M 307.541123 74.329816 
L 311.541123 76.329816 
L 307.541123 78.329816 
" style="fill: none; stroke: #000000; stroke-width: 2; stroke-linecap: round"/>
   </g>
   <g id="text_3">
    <!-- Build -->
    <g style="fill: #333333" transform="translate(354.721623 79.365129) scale(0.11 -0.11)">
     <defs>
      <path id="DejaVuSans-42" d="M 1259 2228 
L 1259 519 
L 2272 519 
Q 2781 519 3026 730 
Q 3272 941 3272 1375 
Q 3272 1813 3026 2020 
Q 2781 2228 2272 2228 
L 1259 2228 
z
M 1259 4147 
L 1259 2741 
L 2194 2741 
Q 2656 2741 2882 2914 
Q 3109 3088 3109 3444 
Q 3109 3797 2882 3972 
Q 2656 4147 2194 4147 
L 1259 4147 
z
M 628 4666 
L 2241 4666 
Q 2963 4666 3353 4366 
Q 3744 4066 3744 3513 
Q 3744 3084 3544 2831 
Q 3344 2578 2956 2516 
Q 3422 2416 3680 2098 
Q 3938 1781 3938 1306 
Q 3938 681 3513 340 
Q 3088 0 2303 0 
L 628 0 
L 628 4666 
z
" transform="scale(0.015625)"/>
      <path id="DejaVuSans-75" d="M 544 1381 
L 544 3500 
L 1119 3500 
L 1119 1403 
Q 1119 906 1312 657 
Q 1506 409 1894 409 
Q 2359 409 2629 706 
Q 2900 1003 2900 1516 
L 2900 3500 
L 3475 3500 
L 3475 0 
L 2900 0 
L 2900 538 
Q 2691 219 2414 64 
Q 2138 -91 1772 -91 
Q 1169 -91 856 284 
Q 544 659 544 1381 
z
M 1991 3584 
L 1991 3584 
z
" transform="scale(0.015625)"/>
      <path id="DejaVuSans-69" d="M 603 3500 
L 1178 3500 
L 1178 0 
L 603 0 
L 603 3500 
z
M 603 4863 
L 1178 4863 
L 1178 4134 
L 603 4134 
L 603 4863 
z
" transform="scale(0.015625)"/>
     </defs>
     <use xlink:href="#DejaVuSans-42"/>
     <use xlink:href="#DejaVuSans-75" x="68.603516"/>
     <use xlink:href="#DejaVuSans-69" x="131.982422"/>
     <use xlink:href="#DejaVuSans-6c" x="159.765625"/>
     <use xlink:href="#DejaVuSans-64" x="187.548828"/>
    </g>
   </g>
   <g id="patch_11">
    <path d="M 423.276329 76.329816 
Q 434.462589 76.329816 443.412781 76.329816 
" style="fill: none; stroke: #000000; stroke-width: 2; stroke-linecap: round"/>
    <path d="M 439.412781 74.329816 
L 443.412781 76.329816 
L 439.412781 78.329816 
" style="fill: none; stroke: #000000; stroke-width: 2; stroke-linecap: round"/>
   </g>
   <g id="text_4">
    <!-- Test -->
    <g style="fill: #333333" transform="translate(489.570156 79.365129) scale(0.11 -0.11)">
     <defs>
      <path id="DejaVuSans-54" d="M -19 4666 
L 3928 4666 
L 3928 4134 
L 2272 4134 
L 2272 0 
L 1638 0 
L 1638 4134 
L -19 4134 
L -19 4666 
z
" transform="scale(0.015625)"/>
      <path id="DejaVuSans-73" d="M 2834 3397 
L 2834 2853 
Q 2591 2978 2328 3040 
Q 2066 3103 1784 3103 
Q 1356 3103 1142 2972 
Q 928 2841 928 2578 
Q 928 2378 1081 2264 
Q 1234 2150 1697 2047 
L 1894 2003 
Q 2506 1872 2764 1633 
Q 3022 1394 3022 966 
Q 3022 478 2636 193 
Q 2250 -91 1575 -91 
Q 1294 -91 989 -36 
Q 684 19 347 128 
L 347 722 
Q 666 556 975 473 
Q 1284 391 1588 391 
Q 1994 391 2212 530 
Q 2431 669 2431 922 
Q 2431 1156 2273 1281 
Q 2116 1406 1581 1522 
L 1381 1569 
Q 847 1681 609 1914 
Q 372 2147 372 2553 
Q 372 3047 722 3315 
Q 1072 3584 1716 3584 
Q 2034 3584 2315 3537 
Q 2597 3491 2834 3397 
z
" transform="scale(0.015625)"/>
      <path id="DejaVuSans-74" d="M 1172 4494 
L 1172 3500 
L 2356 3500 
L 2356 3053 
L 1172 3053 
L 1172 1153 
Q 1172 725 1289 603 
Q 1406 481 1766 481 
L 2356 481 
L 2356 0 
L 1766 0 
Q 1100 0 847 248 
Q 594 497 594 1153 
L 594 3053 
L 172 3053 
L 172 3500 
L 594 3500 
L 594 4494 
L 1172 4494 
z
" transform="scale(0.015625)"/>
     </defs>
     <use xlink:href="#DejaVuSans-54"/>
     <use xlink:href="#DejaVuSans-65" x="44.083984"/>
     <use xlink:href="#DejaVuSans-73" x="105.607422"/>
     <use xlink:href="#DejaVuSans-74" x="157.707031"/>
    </g>
   </g>
   <g id="patch_12">
    <path d="M 555.147987 76.329816 
Q 566.334247 76.329816 575.284439 76.329816 
" style="fill: none; stroke: #000000; stroke-width: 2; stroke-linecap: round"/>
    <path d="M 571.284439 74.329816 
L 575.284439 76.329816 
L 571.284439 78.329816 
" style="fill: none; stroke: #000000; stroke-width: 2; stroke-linecap: round"/>
   </g>
   <g id="text_5">
    <!-- Approve -->
    <g style="fill: #333333" transform="translate(609.383923 73.206332) scale(0.11 -0.11)">
     <defs>
      <path id="DejaVuSans-41" d="M 2188 4044 
L 1331 1722 
L 3047 1722 
L 2188 4044 
z
M 1831 4666 
L 2547 4666 
L 4325 0 
L 3669 0 
L 3244 1197 
L 1141 1197 
L 716 0 
L 50 0 
L 1831 4666 
z
" transform="scale(0.015625)"/>
      <path id="DejaVuSans-70" d="M 1159 525 
L 1159 -1331 
L 581 -1331 
L 581 3500 
L 1159 3500 
L 1159 2969 
Q 1341 3281 1617 3432 
Q 1894 3584 2278 3584 
Q 2916 3584 3314 3078 
Q 3713 2572 3713 1747 
Q 3713 922 3314 415 
Q 2916 -91 2278 -91 
Q 1894 -91 1617 61 
Q 1341 213 1159 525 
z
M 3116 1747 
Q 3116 2381 2855 2742 
Q 2594 3103 2138 3103 
Q 1681 3103 1420 2742 
Q 1159 2381 1159 1747 
Q 1159 1113 1420 752 
Q 1681 391 2138 391 
Q 2594 391 2855 752 
Q 3116 1113 3116 1747 
z
" transform="scale(0.015625)"/>
      <path id="DejaVuSans-72" d="M 2631 2963 
Q 2534 3019 2420 3045 
Q 2306 3072 2169 3072 
Q 1681 3072 1420 2755 
Q 1159 2438 1159 1844 
L 1159 0 
L 581 0 
L 581 3500 
L 1159 3500 
L 1159 2956 
Q 1341 3275 1631 3429 
Q 1922 3584 2338 3584 
Q 2397 3584 2469 3576 
Q 2541 3569 2628 3553 
L 2631 2963 
z
" transform="scale(0.015625)"/>
      <path id="DejaVuSans-76" d="M 191 3500 
L 800 3500 
L 1894 563 
L 2988 3500 
L 3597 3500 
L 2284 0 
L 1503 0 
L 191 3500 
z
" transform="scale(0.015625)"/>
     </defs>
     <use xlink:href="#DejaVuSans-41"/>
     <use xlink:href="#DejaVuSans-70" x="68.408203"/>
     <use xlink:href="#DejaVuSans-70" x="131.884766"/>
     <use xlink:href="#DejaVuSans-72" x="195.361328"/>
     <use xlink:href="#DejaVuSans-6f" x="234.224609"/>
     <use xlink:href="#DejaVuSans-76" x="295.40625"/>
     <use xlink:href="#DejaVuSans-65" x="354.585938"/>
    </g>
    <!-- (CAB) -->
    <g style="fill: #333333" transform="translate(616.603533 85.523926) scale(0.11 -0.11)">
     <defs>
      <path id="DejaVuSans-28" d="M 1984 4856 
Q 1566 4138 1362 3434 
Q 1159 2731 1159 2009 
Q 1159 1288 1364 580 
Q 1569 -128 1984 -844 
L 1484 -844 
Q 1016 -109 783 600 
Q 550 1309 550 2009 
Q 550 2706 781 3412 
Q 1013 4119 1484 4856 
L 1984 4856 
z
" transform="scale(0.015625)"/>
      <path id="DejaVuSans-29" d="M 513 4856 
L 1013 4856 
Q 1481 4119 1714 3412 
Q 1947 2706 1947 2009 
Q 1947 1309 1714 600 
Q 1481 -109 1013 -844 
L 513 -844 
Q 928 -128 1133 580 
Q 1338 1288 1338 2009 
Q 1338 2731 1133 3434 
Q 928 4138 513 4856 
z
" transform="scale(0.015625)"/>
     </defs>
     <use xlink:href="#DejaVuSans-28"/>
     <use xlink:href="#DejaVuSans-43" x="39.013672"/>
     <use xlink:href="#DejaVuSans-41" x="108.837891"/>
     <use xlink:href="#DejaVuSans-42" x="177.246094"/>
     <use xlink:href="#DejaVuSans-29" x="245.849609"/>
    </g>
   </g>
   <g id="patch_13">
    <path d="M 687.019645 76.329816 
Q 698.205905 76.329816 707.156097 76.329816 
" style="fill: none; stroke: #000000; stroke-width: 2; stroke-linecap: round"/>
    <path d="M 703.156097 74.329816 
L 707.156097 76.329816 
L 703.156097 78.329816 
" style="fill: none; stroke: #000000; stroke-width: 2; stroke-linecap: round"/>
   </g>
   <g id="text_6">
    <!-- Deploy -->
    <g style="fill: #333333" transform="translate(744.883862 79.365129) scale(0.11 -0.11)">
     <defs>
      <path id="DejaVuSans-44" d="M 1259 4147 
L 1259 519 
L 2022 519 
Q 2988 519 3436 956 
Q 3884 1394 3884 2338 
Q 3884 3275 3436 3711 
Q 2988 4147 2022 4147 
L 1259 4147 
z
M 628 4666 
L 1925 4666 
Q 3281 4666 3915 4102 
Q 4550 3538 4550 2338 
Q 4550 1131 3912 565 
Q 3275 0 1925 0 
L 628 0 
L 628 4666 
z
" transform="scale(0.015625)"/>
      <path id="DejaVuSans-79" d="M 2059 -325 
Q 1816 -950 1584 -1140 
Q 1353 -1331 966 -1331 
L 506 -1331 
L 506 -850 
L 844 -850 
Q 1081 -850 1212 -737 
Q 1344 -625 1503 -206 
L 1606 56 
L 191 3500 
L 800 3500 
L 1894 763 
L 2988 3500 
L 3597 3500 
L 2059 -325 
z
" transform="scale(0.015625)"/>
     </defs>
     <use xlink:href="#DejaVuSans-44"/>
     <use xlink:href="#DejaVuSans-65" x="77.001953"/>
     <use xlink:href="#DejaVuSans-70" x="138.525391"/>
     <use xlink:href="#DejaVuSans-6c" x="202.001953"/>
     <use xlink:href="#DejaVuSans-6f" x="229.785156"/>
     <use xlink:href="#DejaVuSans-79" x="290.966797"/>
    </g>
   </g>
   <g id="patch_14">
    <path d="M 818.891302 76.329816 
Q 830.077562 76.329816 839.027754 76.329816 
" style="fill: none; stroke: #000000; stroke-width: 2; stroke-linecap: round"/>
    <path d="M 835.027754 74.329816 
L 839.027754 76.329816 
L 835.027754 78.329816 
" style="fill: none; stroke: #000000; stroke-width: 2; stroke-linecap: round"/>
   </g>
   <g id="text_7">
    <!-- Operate -->
    <g style="fill: #333333" transform="translate(873.637708 79.365129) scale(0.11 -0.11)">
     <defs>
      <path id="DejaVuSans-4f" d="M 2522 4238 
Q 1834 4238 1429 3725 
Q 1025 3213 1025 2328 
Q 1025 1447 1429 934 
Q 1834 422 2522 422 
Q 3209 422 3611 934 
Q 4013 1447 4013 2328 
Q 4013 3213 3611 3725 
Q 3209 4238 2522 4238 
z
M 2522 4750 
Q 3503 4750 4090 4092 
Q 4678 3434 4678 2328 
Q 4678 1225 4090 567 
Q 3503 -91 2522 -91 
Q 1538 -91 948 565 
Q 359 1222 359 2328 
Q 359 3434 948 4092 
Q 1538 4750 2522 4750 
z
" transform="scale(0.015625)"/>
     </defs>
     <use xlink:href="#DejaVuSans-4f"/>
     <use xlink:href="#DejaVuSans-70" x="78.710938"/>
     <use xlink:href="#DejaVuSans-65" x="142.1875"/>
     <use xlink:href="#DejaVuSans-72" x="203.710938"/>
     <use xlink:href="#DejaVuSans-61" x="244.824219"/>
     <use xlink:href="#DejaVuSans-74" x="306.103516"/>
     <use xlink:href="#DejaVuSans-65" x="345.3125"/>
    </g>
   </g>
   <g id="text_8">
    <!-- Handoffs &amp; queues -->
    <g style="fill: #333333" transform="translate(188.958247 223.934235) scale(0.1 -0.1)">
     <defs>
      <path id="DejaVuSans-48" d="M 628 4666 
L 1259 4666 
L 1259 2753 
L 3553 2753 
L 3553 4666 
L 4184 4666 
L 4184 0 
L 3553 0 
L 3553 2222 
L 1259 2222 
L 1259 0 
L 628 0 
L 628 4666 
z
" transform="scale(0.015625)"/>
      <path id="DejaVuSans-66" d="M 2375 4863 
L 2375 4384 
L 1825 4384 
Q 1516 4384 1395 4259 
Q 1275 4134 1275 3809 
L 1275 3500 
L 2222 3500 
L 2222 3053 
L 1275 3053 
L 1275 0 
L 697 0 
L 697 3053 
L 147 3053 
L 147 3500 
L 697 3500 
L 697 3744 
Q 697 4328 969 4595 
Q 1241 4863 1831 4863 
L 2375 4863 
z
" transform="scale(0.015625)"/>
      <path id="DejaVuSans-20" transform="scale(0.015625)"/>
      <path id="DejaVuSans-26" d="M 1556 2509 
Q 1272 2256 1139 2004 
Q 1006 1753 1006 1478 
Q 1006 1022 1337 719 
Q 1669 416 2169 416 
Q 2466 416 2725 514 
Q 2984 613 3213 813 
L 1556 2509 
z
M 1997 2859 
L 3584 1234 
Q 3769 1513 3872 1830 
Q 3975 2147 3994 2503 
L 4575 2503 
Q 4538 2091 4375 1687 
Q 4213 1284 3922 891 
L 4794 0 
L 4006 0 
L 3559 459 
Q 3234 181 2878 45 
Q 2522 -91 2113 -91 
Q 1359 -91 881 339 
Q 403 769 403 1441 
Q 403 1841 612 2192 
Q 822 2544 1241 2853 
Q 1091 3050 1012 3245 
Q 934 3441 934 3628 
Q 934 4134 1281 4442 
Q 1628 4750 2203 4750 
Q 2463 4750 2720 4694 
Q 2978 4638 3244 4525 
L 3244 3956 
Q 2972 4103 2725 4179 
Q 2478 4256 2266 4256 
Q 1938 4256 1733 4082 
Q 1528 3909 1528 3634 
Q 1528 3475 1620 3314 
Q 1713 3153 1997 2859 
z
" transform="scale(0.015625)"/>
      <path id="DejaVuSans-71" d="M 947 1747 
Q 947 1113 1208 752 
Q 1469 391 1925 391 
Q 2381 391 2643 752 
Q 2906 1113 2906 1747 
Q 2906 2381 2643 2742 
Q 2381 3103 1925 3103 
Q 1469 3103 1208 2742 
Q 947 2381 947 1747 
z
M 2906 525 
Q 2725 213 2448 61 
Q 2172 -91 1784 -91 
Q 1150 -91 751 415 
Q 353 922 353 1747 
Q 353 2572 751 3078 
Q 1150 3584 1784 3584 
Q 2172 3584 2448 3432 
Q 2725 3281 2906 2969 
L 2906 3500 
L 3481 3500 
L 3481 -1331 
L 2906 -1331 
L 2906 525 
z
" transform="scale(0.015625)"/>
     </defs>
     <use xlink:href="#DejaVuSans-48"/>
     <use xlink:href="#DejaVuSans-61" x="75.195312"/>
     <use xlink:href="#DejaVuSans-6e" x="136.474609"/>
     <use xlink:href="#DejaVuSans-64" x="199.853516"/>
     <use xlink:href="#DejaVuSans-6f" x="263.330078"/>
     <use xlink:href="#DejaVuSans-66" x="324.511719"/>
     <use xlink:href="#DejaVuSans-66" x="359.716797"/>
     <use xlink:href="#DejaVuSans-73" x="394.921875"/>
     <use xlink:href="#DejaVuSans-20" x="447.021484"/>
     <use xlink:href="#DejaVuSans-26" x="478.808594"/>
     <use xlink:href="#DejaVuSans-20" x="556.787109"/>
     <use xlink:href="#DejaVuSans-71" x="588.574219"/>
     <use xlink:href="#DejaVuSans-75" x="652.050781"/>
     <use xlink:href="#DejaVuSans-65" x="715.429688"/>
     <use xlink:href="#DejaVuSans-75" x="776.953125"/>
     <use xlink:href="#DejaVuSans-65" x="840.332031"/>
     <use xlink:href="#DejaVuSans-73" x="901.855469"/>
    </g>
    <!-- between teams -->
    <g style="fill: #333333" transform="translate(197.869966 235.132047) scale(0.1 -0.1)">
     <defs>
      <path id="DejaVuSans-62" d="M 3116 1747 
Q 3116 2381 2855 2742 
Q 2594 3103 2138 3103 
Q 1681 3103 1420 2742 
Q 1159 2381 1159 1747 
Q 1159 1113 1420 752 
Q 1681 391 2138 391 
Q 2594 391 2855 752 
Q 3116 1113 3116 1747 
z
M 1159 2969 
Q 1341 3281 1617 3432 
Q 1894 3584 2278 3584 
Q 2916 3584 3314 3078 
Q 3713 2572 3713 1747 
Q 3713 922 3314 415 
Q 2916 -91 2278 -91 
Q 1894 -91 1617 61 
Q 1341 213 1159 525 
L 1159 0 
L 581 0 
L 581 4863 
L 1159 4863 
L 1159 2969 
z
" transform="scale(0.015625)"/>
      <path id="DejaVuSans-77" d="M 269 3500 
L 844 3500 
L 1563 769 
L 2278 3500 
L 2956 3500 
L 3675 769 
L 4391 3500 
L 4966 3500 
L 4050 0 
L 3372 0 
L 2619 2869 
L 1863 0 
L 1184 0 
L 269 3500 
z
" transform="scale(0.015625)"/>
      <path id="DejaVuSans-6d" d="M 3328 2828 
Q 3544 3216 3844 3400 
Q 4144 3584 4550 3584 
Q 5097 3584 5394 3201 
Q 5691 2819 5691 2113 
L 5691 0 
L 5113 0 
L 5113 2094 
Q 5113 2597 4934 2840 
Q 4756 3084 4391 3084 
Q 3944 3084 3684 2787 
Q 3425 2491 3425 1978 
L 3425 0 
L 2847 0 
L 2847 2094 
Q 2847 2600 2669 2842 
Q 2491 3084 2119 3084 
Q 1678 3084 1418 2786 
Q 1159 2488 1159 1978 
L 1159 0 
L 581 0 
L 581 3500 
L 1159 3500 
L 1159 2956 
Q 1356 3278 1631 3431 
Q 1906 3584 2284 3584 
Q 2666 3584 2933 3390 
Q 3200 3197 3328 2828 
z
" transform="scale(0.015625)"/>
     </defs>
     <use xlink:href="#DejaVuSans-62"/>
     <use xlink:href="#DejaVuSans-65" x="63.476562"/>
     <use xlink:href="#DejaVuSans-74" x="125"/>
     <use xlink:href="#DejaVuSans-77" x="164.208984"/>
     <use xlink:href="#DejaVuSans-65" x="245.996094"/>
     <use xlink:href="#DejaVuSans-65" x="307.519531"/>
     <use xlink:href="#DejaVuSans-6e" x="369.042969"/>
     <use xlink:href="#DejaVuSans-20" x="432.421875"/>
     <use xlink:href="#DejaVuSans-74" x="464.208984"/>
     <use xlink:href="#DejaVuSans-65" x="503.417969"/>
     <use xlink:href="#DejaVuSans-61" x="564.941406"/>
     <use xlink:href="#DejaVuSans-6d" x="626.220703"/>
     <use xlink:href="#DejaVuSans-73" x="723.632812"/>
    </g>
   </g>
   <g id="text_9">
    <!-- Flaky tests muted, -->
    <g style="fill: #333333" transform="translate(454.174219 223.934235) scale(0.1 -0.1)">
     <defs>
      <path id="DejaVuSans-46" d="M 628 4666 
L 3309 4666 
L 3309 4134 
L 1259 4134 
L 1259 2759 
L 3109 2759 
L 3109 2228 
L 1259 2228 
L 1259 0 
L 628 0 
L 628 4666 
z
" transform="scale(0.015625)"/>
      <path id="DejaVuSans-6b" d="M 581 4863 
L 1159 4863 
L 1159 1991 
L 2875 3500 
L 3609 3500 
L 1753 1863 
L 3688 0 
L 2938 0 
L 1159 1709 
L 1159 0 
L 581 0 
L 581 4863 
z
" transform="scale(0.015625)"/>
      <path id="DejaVuSans-2c" d="M 750 794 
L 1409 794 
L 1409 256 
L 897 -744 
L 494 -744 
L 750 256 
L 750 794 
z
" transform="scale(0.015625)"/>
     </defs>
     <use xlink:href="#DejaVuSans-46"/>
     <use xlink:href="#DejaVuSans-6c" x="57.519531"/>
     <use xlink:href="#DejaVuSans-61" x="85.302734"/>
     <use xlink:href="#DejaVuSans-6b" x="146.582031"/>
     <use xlink:href="#DejaVuSans-79" x="200.867188"/>
     <use xlink:href="#DejaVuSans-20" x="260.046875"/>
     <use xlink:href="#DejaVuSans-74" x="291.833984"/>
     <use xlink:href="#DejaVuSans-65" x="331.042969"/>
     <use xlink:href="#DejaVuSans-73" x="392.566406"/>
     <use xlink:href="#DejaVuSans-74" x="444.666016"/>
     <use xlink:href="#DejaVuSans-73" x="483.875"/>
     <use xlink:href="#DejaVuSans-20" x="535.974609"/>
     <use xlink:href="#DejaVuSans-6d" x="567.761719"/>
     <use xlink:href="#DejaVuSans-75" x="665.173828"/>
     <use xlink:href="#DejaVuSans-74" x="728.552734"/>
     <use xlink:href="#DejaVuSans-65" x="767.761719"/>
     <use xlink:href="#DejaVuSans-64" x="829.285156"/>
     <use xlink:href="#DejaVuSans-2c" x="892.761719"/>
    </g>
    <!-- slow test feedback -->
    <g style="fill: #333333" transform="translate(453.507813 235.132047) scale(0.1 -0.1)">
     <defs>
      <path id="DejaVuSans-63" d="M 3122 3366 
L 3122 2828 
Q 2878 2963 2633 3030 
Q 2388 3097 2138 3097 
Q 1578 3097 1268 2742 
Q 959 2388 959 1747 
Q 959 1106 1268 751 
Q 1578 397 2138 397 
Q 2388 397 2633 464 
Q 2878 531 3122 666 
L 3122 134 
Q 2881 22 2623 -34 
Q 2366 -91 2075 -91 
Q 1284 -91 818 406 
Q 353 903 353 1747 
Q 353 2603 823 3093 
Q 1294 3584 2113 3584 
Q 2378 3584 2631 3529 
Q 2884 3475 3122 3366 
z
" transform="scale(0.015625)"/>
     </defs>
     <use xlink:href="#DejaVuSans-73"/>
     <use xlink:href="#DejaVuSans-6c" x="52.099609"/>
     <use xlink:href="#DejaVuSans-6f" x="79.882812"/>
     <use xlink:href="#DejaVuSans-77" x="141.064453"/>
     <use xlink:href="#DejaVuSans-20" x="222.851562"/>
     <use xlink:href="#DejaVuSans-74" x="254.638672"/>
     <use xlink:href="#DejaVuSans-65" x="293.847656"/>
     <use xlink:href="#DejaVuSans-73" x="355.371094"/>
     <use xlink:href="#DejaVuSans-74" x="407.470703"/>
     <use xlink:href="#DejaVuSans-20" x="446.679688"/>
     <use xlink:href="#DejaVuSans-66" x="478.466797"/>
     <use xlink:href="#DejaVuSans-65" x="513.671875"/>
     <use xlink:href="#DejaVuSans-65" x="575.195312"/>
     <use xlink:href="#DejaVuSans-64" x="636.71875"/>
     <use xlink:href="#DejaVuSans-62" x="700.195312"/>
     <use xlink:href="#DejaVuSans-61" x="763.671875"/>
     <use xlink:href="#DejaVuSans-63" x="824.951172"/>
     <use xlink:href="#DejaVuSans-6b" x="879.931641"/>
    </g>
   </g>
   <g id="text_10">
    <!-- Manual deployment steps, -->
    <g style="fill: #333333" transform="translate(697.878472 223.934235) scale(0.1 -0.1)">
     <defs>
      <path id="DejaVuSans-4d" d="M 628 4666 
L 1569 4666 
L 2759 1491 
L 3956 4666 
L 4897 4666 
L 4897 0 
L 4281 0 
L 4281 4097 
L 3078 897 
L 2444 897 
L 1241 4097 
L 1241 0 
L 628 0 
L 628 4666 
z
" transform="scale(0.015625)"/>
     </defs>
     <use xlink:href="#DejaVuSans-4d"/>
     <use xlink:href="#DejaVuSans-61" x="86.279297"/>
     <use xlink:href="#DejaVuSans-6e" x="147.558594"/>
     <use xlink:href="#DejaVuSans-75" x="210.9375"/>
     <use xlink:href="#DejaVuSans-61" x="274.316406"/>
     <use xlink:href="#DejaVuSans-6c" x="335.595703"/>
     <use xlink:href="#DejaVuSans-20" x="363.378906"/>
     <use xlink:href="#DejaVuSans-64" x="395.166016"/>
     <use xlink:href="#DejaVuSans-65" x="458.642578"/>
     <use xlink:href="#DejaVuSans-70" x="520.166016"/>
     <use xlink:href="#DejaVuSans-6c" x="583.642578"/>
     <use xlink:href="#DejaVuSans-6f" x="611.425781"/>
     <use xlink:href="#DejaVuSans-79" x="672.607422"/>
     <use xlink:href="#DejaVuSans-6d" x="731.787109"/>
     <use xlink:href="#DejaVuSans-65" x="829.199219"/>
     <use xlink:href="#DejaVuSans-6e" x="890.722656"/>
     <use xlink:href="#DejaVuSans-74" x="954.101562"/>
     <use xlink:href="#DejaVuSans-20" x="993.310547"/>
     <use xlink:href="#DejaVuSans-73" x="1025.097656"/>
     <use xlink:href="#DejaVuSans-74" x="1077.197266"/>
     <use xlink:href="#DejaVuSans-65" x="1116.40625"/>
     <use xlink:href="#DejaVuSans-70" x="1177.929688"/>
     <use xlink:href="#DejaVuSans-73" x="1241.40625"/>
     <use xlink:href="#DejaVuSans-2c" x="1293.505859"/>
    </g>
    <!-- no progressive delivery -->
    <g style="fill: #333333" transform="translate(705.652691 235.132047) scale(0.1 -0.1)">
     <defs>
      <path id="DejaVuSans-67" d="M 2906 1791 
Q 2906 2416 2648 2759 
Q 2391 3103 1925 3103 
Q 1463 3103 1205 2759 
Q 947 2416 947 1791 
Q 947 1169 1205 825 
Q 1463 481 1925 481 
Q 2391 481 2648 825 
Q 2906 1169 2906 1791 
z
M 3481 434 
Q 3481 -459 3084 -895 
Q 2688 -1331 1869 -1331 
Q 1566 -1331 1297 -1286 
Q 1028 -1241 775 -1147 
L 775 -588 
Q 1028 -725 1275 -790 
Q 1522 -856 1778 -856 
Q 2344 -856 2625 -561 
Q 2906 -266 2906 331 
L 2906 616 
Q 2728 306 2450 153 
Q 2172 0 1784 0 
Q 1141 0 747 490 
Q 353 981 353 1791 
Q 353 2603 747 3093 
Q 1141 3584 1784 3584 
Q 2172 3584 2450 3431 
Q 2728 3278 2906 2969 
L 2906 3500 
L 3481 3500 
L 3481 434 
z
" transform="scale(0.015625)"/>
     </defs>
     <use xlink:href="#DejaVuSans-6e"/>
     <use xlink:href="#DejaVuSans-6f" x="63.378906"/>
     <use xlink:href="#DejaVuSans-20" x="124.560547"/>
     <use xlink:href="#DejaVuSans-70" x="156.347656"/>
     <use xlink:href="#DejaVuSans-72" x="219.824219"/>
     <use xlink:href="#DejaVuSans-6f" x="258.6875"/>
     <use xlink:href="#DejaVuSans-67" x="319.869141"/>
     <use xlink:href="#DejaVuSans-72" x="383.345703"/>
     <use xlink:href="#DejaVuSans-65" x="422.208984"/>
     <use xlink:href="#DejaVuSans-73" x="483.732422"/>
     <use xlink:href="#DejaVuSans-73" x="535.832031"/>
     <use xlink:href="#DejaVuSans-69" x="587.931641"/>
     <use xlink:href="#DejaVuSans-76" x="615.714844"/>
     <use xlink:href="#DejaVuSans-65" x="674.894531"/>
     <use xlink:href="#DejaVuSans-20" x="736.417969"/>
     <use xlink:href="#DejaVuSans-64" x="768.205078"/>
     <use xlink:href="#DejaVuSans-65" x="831.681641"/>
     <use xlink:href="#DejaVuSans-6c" x="893.205078"/>
     <use xlink:href="#DejaVuSans-69" x="920.988281"/>
     <use xlink:href="#DejaVuSans-76" x="948.771484"/>
     <use xlink:href="#DejaVuSans-65" x="1007.951172"/>
     <use xlink:href="#DejaVuSans-72" x="1069.474609"/>
     <use xlink:href="#DejaVuSans-79" x="1110.587891"/>
    </g>
   </g>
   <g id="text_11">
    <!-- Environment drift, -->
    <g style="fill: #333333" transform="translate(323.175217 333.938934) scale(0.1 -0.1)">
     <defs>
      <path id="DejaVuSans-45" d="M 628 4666 
L 3578 4666 
L 3578 4134 
L 1259 4134 
L 1259 2753 
L 3481 2753 
L 3481 2222 
L 1259 2222 
L 1259 531 
L 3634 531 
L 3634 0 
L 628 0 
L 628 4666 
z
" transform="scale(0.015625)"/>
     </defs>
     <use xlink:href="#DejaVuSans-45"/>
     <use xlink:href="#DejaVuSans-6e" x="63.183594"/>
     <use xlink:href="#DejaVuSans-76" x="126.5625"/>
     <use xlink:href="#DejaVuSans-69" x="185.742188"/>
     <use xlink:href="#DejaVuSans-72" x="213.525391"/>
     <use xlink:href="#DejaVuSans-6f" x="252.388672"/>
     <use xlink:href="#DejaVuSans-6e" x="313.570312"/>
     <use xlink:href="#DejaVuSans-6d" x="376.949219"/>
     <use xlink:href="#DejaVuSans-65" x="474.361328"/>
     <use xlink:href="#DejaVuSans-6e" x="535.884766"/>
     <use xlink:href="#DejaVuSans-74" x="599.263672"/>
     <use xlink:href="#DejaVuSans-20" x="638.472656"/>
     <use xlink:href="#DejaVuSans-64" x="670.259766"/>
     <use xlink:href="#DejaVuSans-72" x="733.736328"/>
     <use xlink:href="#DejaVuSans-69" x="774.849609"/>
     <use xlink:href="#DejaVuSans-66" x="802.632812"/>
     <use xlink:href="#DejaVuSans-74" x="836.087891"/>
     <use xlink:href="#DejaVuSans-2c" x="875.296875"/>
    </g>
    <!-- not Git as source of truth -->
    <g style="fill: #333333" transform="translate(305.768186 345.136746) scale(0.1 -0.1)">
     <defs>
      <path id="DejaVuSans-47" d="M 3809 666 
L 3809 1919 
L 2778 1919 
L 2778 2438 
L 4434 2438 
L 4434 434 
Q 4069 175 3628 42 
Q 3188 -91 2688 -91 
Q 1594 -91 976 548 
Q 359 1188 359 2328 
Q 359 3472 976 4111 
Q 1594 4750 2688 4750 
Q 3144 4750 3555 4637 
Q 3966 4525 4313 4306 
L 4313 3634 
Q 3963 3931 3569 4081 
Q 3175 4231 2741 4231 
Q 1884 4231 1454 3753 
Q 1025 3275 1025 2328 
Q 1025 1384 1454 906 
Q 1884 428 2741 428 
Q 3075 428 3337 486 
Q 3600 544 3809 666 
z
" transform="scale(0.015625)"/>
      <path id="DejaVuSans-68" d="M 3513 2113 
L 3513 0 
L 2938 0 
L 2938 2094 
Q 2938 2591 2744 2837 
Q 2550 3084 2163 3084 
Q 1697 3084 1428 2787 
Q 1159 2491 1159 1978 
L 1159 0 
L 581 0 
L 581 4863 
L 1159 4863 
L 1159 2956 
Q 1366 3272 1645 3428 
Q 1925 3584 2291 3584 
Q 2894 3584 3203 3211 
Q 3513 2838 3513 2113 
z
" transform="scale(0.015625)"/>
     </defs>
     <use xlink:href="#DejaVuSans-6e"/>
     <use xlink:href="#DejaVuSans-6f" x="63.378906"/>
     <use xlink:href="#DejaVuSans-74" x="124.560547"/>
     <use xlink:href="#DejaVuSans-20" x="163.769531"/>
     <use xlink:href="#DejaVuSans-47" x="195.556641"/>
     <use xlink:href="#DejaVuSans-69" x="273.046875"/>
     <use xlink:href="#DejaVuSans-74" x="300.830078"/>
     <use xlink:href="#DejaVuSans-20" x="340.039062"/>
     <use xlink:href="#DejaVuSans-61" x="371.826172"/>
     <use xlink:href="#DejaVuSans-73" x="433.105469"/>
     <use xlink:href="#DejaVuSans-20" x="485.205078"/>
     <use xlink:href="#DejaVuSans-73" x="516.992188"/>
     <use xlink:href="#DejaVuSans-6f" x="569.091797"/>
     <use xlink:href="#DejaVuSans-75" x="630.273438"/>
     <use xlink:href="#DejaVuSans-72" x="693.652344"/>
     <use xlink:href="#DejaVuSans-63" x="732.515625"/>
     <use xlink:href="#DejaVuSans-65" x="787.496094"/>
     <use xlink:href="#DejaVuSans-20" x="849.019531"/>
     <use xlink:href="#DejaVuSans-6f" x="880.806641"/>
     <use xlink:href="#DejaVuSans-66" x="941.988281"/>
     <use xlink:href="#DejaVuSans-20" x="977.193359"/>
     <use xlink:href="#DejaVuSans-74" x="1008.980469"/>
     <use xlink:href="#DejaVuSans-72" x="1048.189453"/>
     <use xlink:href="#DejaVuSans-75" x="1089.302734"/>
     <use xlink:href="#DejaVuSans-74" x="1152.681641"/>
     <use xlink:href="#DejaVuSans-68" x="1191.890625"/>
    </g>
   </g>
   <g id="text_12">
    <!-- Security/compliance at gate, -->
    <g style="fill: #333333" transform="translate(560.29822 333.938934) scale(0.1 -0.1)">
     <defs>
      <path id="DejaVuSans-53" d="M 3425 4513 
L 3425 3897 
Q 3066 4069 2747 4153 
Q 2428 4238 2131 4238 
Q 1616 4238 1336 4038 
Q 1056 3838 1056 3469 
Q 1056 3159 1242 3001 
Q 1428 2844 1947 2747 
L 2328 2669 
Q 3034 2534 3370 2195 
Q 3706 1856 3706 1288 
Q 3706 609 3251 259 
Q 2797 -91 1919 -91 
Q 1588 -91 1214 -16 
Q 841 59 441 206 
L 441 856 
Q 825 641 1194 531 
Q 1563 422 1919 422 
Q 2459 422 2753 634 
Q 3047 847 3047 1241 
Q 3047 1584 2836 1778 
Q 2625 1972 2144 2069 
L 1759 2144 
Q 1053 2284 737 2584 
Q 422 2884 422 3419 
Q 422 4038 858 4394 
Q 1294 4750 2059 4750 
Q 2388 4750 2728 4690 
Q 3069 4631 3425 4513 
z
" transform="scale(0.015625)"/>
      <path id="DejaVuSans-2f" d="M 1625 4666 
L 2156 4666 
L 531 -594 
L 0 -594 
L 1625 4666 
z
" transform="scale(0.015625)"/>
     </defs>
     <use xlink:href="#DejaVuSans-53"/>
     <use xlink:href="#DejaVuSans-65" x="63.476562"/>
     <use xlink:href="#DejaVuSans-63" x="125"/>
     <use xlink:href="#DejaVuSans-75" x="179.980469"/>
     <use xlink:href="#DejaVuSans-72" x="243.359375"/>
     <use xlink:href="#DejaVuSans-69" x="284.472656"/>
     <use xlink:href="#DejaVuSans-74" x="312.255859"/>
     <use xlink:href="#DejaVuSans-79" x="351.464844"/>
     <use xlink:href="#DejaVuSans-2f" x="410.644531"/>
     <use xlink:href="#DejaVuSans-63" x="444.335938"/>
     <use xlink:href="#DejaVuSans-6f" x="499.316406"/>
     <use xlink:href="#DejaVuSans-6d" x="560.498047"/>
     <use xlink:href="#DejaVuSans-70" x="657.910156"/>
     <use xlink:href="#DejaVuSans-6c" x="721.386719"/>
     <use xlink:href="#DejaVuSans-69" x="749.169922"/>
     <use xlink:href="#DejaVuSans-61" x="776.953125"/>
     <use xlink:href="#DejaVuSans-6e" x="838.232422"/>
     <use xlink:href="#DejaVuSans-63" x="901.611328"/>
     <use xlink:href="#DejaVuSans-65" x="956.591797"/>
     <use xlink:href="#DejaVuSans-20" x="1018.115234"/>
     <use xlink:href="#DejaVuSans-61" x="1049.902344"/>
     <use xlink:href="#DejaVuSans-74" x="1111.181641"/>
     <use xlink:href="#DejaVuSans-20" x="1150.390625"/>
     <use xlink:href="#DejaVuSans-67" x="1182.177734"/>
     <use xlink:href="#DejaVuSans-61" x="1245.654297"/>
     <use xlink:href="#DejaVuSans-74" x="1306.933594"/>
     <use xlink:href="#DejaVuSans-65" x="1346.142578"/>
     <use xlink:href="#DejaVuSans-2c" x="1407.666016"/>
    </g>
    <!-- not policy as code in-path -->
    <g style="fill: #333333" transform="translate(567.549783 345.136746) scale(0.1 -0.1)">
     <defs>
      <path id="DejaVuSans-2d" d="M 313 2009 
L 1997 2009 
L 1997 1497 
L 313 1497 
L 313 2009 
z
" transform="scale(0.015625)"/>
     </defs>
     <use xlink:href="#DejaVuSans-6e"/>
     <use xlink:href="#DejaVuSans-6f" x="63.378906"/>
     <use xlink:href="#DejaVuSans-74" x="124.560547"/>
     <use xlink:href="#DejaVuSans-20" x="163.769531"/>
     <use xlink:href="#DejaVuSans-70" x="195.556641"/>
     <use xlink:href="#DejaVuSans-6f" x="259.033203"/>
     <use xlink:href="#DejaVuSans-6c" x="320.214844"/>
     <use xlink:href="#DejaVuSans-69" x="347.998047"/>
     <use xlink:href="#DejaVuSans-63" x="375.78125"/>
     <use xlink:href="#DejaVuSans-79" x="430.761719"/>
     <use xlink:href="#DejaVuSans-20" x="489.941406"/>
     <use xlink:href="#DejaVuSans-61" x="521.728516"/>
     <use xlink:href="#DejaVuSans-73" x="583.007812"/>
     <use xlink:href="#DejaVuSans-20" x="635.107422"/>
     <use xlink:href="#DejaVuSans-63" x="666.894531"/>
     <use xlink:href="#DejaVuSans-6f" x="721.875"/>
     <use xlink:href="#DejaVuSans-64" x="783.056641"/>
     <use xlink:href="#DejaVuSans-65" x="846.533203"/>
     <use xlink:href="#DejaVuSans-20" x="908.056641"/>
     <use xlink:href="#DejaVuSans-69" x="939.84375"/>
     <use xlink:href="#DejaVuSans-6e" x="967.626953"/>
     <use xlink:href="#DejaVuSans-2d" x="1031.005859"/>
     <use xlink:href="#DejaVuSans-70" x="1067.089844"/>
     <use xlink:href="#DejaVuSans-61" x="1130.566406"/>
     <use xlink:href="#DejaVuSans-74" x="1191.845703"/>
     <use xlink:href="#DejaVuSans-68" x="1231.054688"/>
    </g>
   </g>
   <g id="text_13">
    <!-- Incidents end in -->
    <g style="fill: #333333" transform="translate(856.093098 333.938934) scale(0.1 -0.1)">
     <defs>
      <path id="DejaVuSans-49" d="M 628 4666 
L 1259 4666 
L 1259 0 
L 628 0 
L 628 4666 
z
" transform="scale(0.015625)"/>
     </defs>
     <use xlink:href="#DejaVuSans-49"/>
     <use xlink:href="#DejaVuSans-6e" x="29.492188"/>
     <use xlink:href="#DejaVuSans-63" x="92.871094"/>
     <use xlink:href="#DejaVuSans-69" x="147.851562"/>
     <use xlink:href="#DejaVuSans-64" x="175.634766"/>
     <use xlink:href="#DejaVuSans-65" x="239.111328"/>
     <use xlink:href="#DejaVuSans-6e" x="300.634766"/>
     <use xlink:href="#DejaVuSans-74" x="364.013672"/>
     <use xlink:href="#DejaVuSans-73" x="403.222656"/>
     <use xlink:href="#DejaVuSans-20" x="455.322266"/>
     <use xlink:href="#DejaVuSans-65" x="487.109375"/>
     <use xlink:href="#DejaVuSans-6e" x="548.632812"/>
     <use xlink:href="#DejaVuSans-64" x="612.011719"/>
     <use xlink:href="#DejaVuSans-20" x="675.488281"/>
     <use xlink:href="#DejaVuSans-69" x="707.275391"/>
     <use xlink:href="#DejaVuSans-6e" x="735.058594"/>
    </g>
    <!-- 'who hit it', not SLOs -->
    <g style="fill: #333333" transform="translate(844.629036 345.136746) scale(0.1 -0.1)">
     <defs>
      <path id="DejaVuSans-27" d="M 1147 4666 
L 1147 2931 
L 616 2931 
L 616 4666 
L 1147 4666 
z
" transform="scale(0.015625)"/>
      <path id="DejaVuSans-4c" d="M 628 4666 
L 1259 4666 
L 1259 531 
L 3531 531 
L 3531 0 
L 628 0 
L 628 4666 
z
" transform="scale(0.015625)"/>
     </defs>
     <use xlink:href="#DejaVuSans-27"/>
     <use xlink:href="#DejaVuSans-77" x="27.490234"/>
     <use xlink:href="#DejaVuSans-68" x="109.277344"/>
     <use xlink:href="#DejaVuSans-6f" x="172.65625"/>
     <use xlink:href="#DejaVuSans-20" x="233.837891"/>
     <use xlink:href="#DejaVuSans-68" x="265.625"/>
     <use xlink:href="#DejaVuSans-69" x="329.003906"/>
     <use xlink:href="#DejaVuSans-74" x="356.787109"/>
     <use xlink:href="#DejaVuSans-20" x="395.996094"/>
     <use xlink:href="#DejaVuSans-69" x="427.783203"/>
     <use xlink:href="#DejaVuSans-74" x="455.566406"/>
     <use xlink:href="#DejaVuSans-27" x="494.775391"/>
     <use xlink:href="#DejaVuSans-2c" x="522.265625"/>
     <use xlink:href="#DejaVuSans-20" x="554.052734"/>
     <use xlink:href="#DejaVuSans-6e" x="585.839844"/>
     <use xlink:href="#DejaVuSans-6f" x="649.21875"/>
     <use xlink:href="#DejaVuSans-74" x="710.400391"/>
     <use xlink:href="#DejaVuSans-20" x="749.609375"/>
     <use xlink:href="#DejaVuSans-53" x="781.396484"/>
     <use xlink:href="#DejaVuSans-4c" x="844.873047"/>
     <use xlink:href="#DejaVuSans-4f" x="896.960938"/>
     <use xlink:href="#DejaVuSans-73" x="975.671875"/>
    </g>
   </g>
   <g id="text_14">
    <!-- Symptoms in metrics: long lead time • low deploy frequency • high change failure rate • slow time to restore -->
    <g style="fill: #333333" transform="translate(226.13125 404.264226) scale(0.1 -0.1)">
     <defs>
      <path id="DejaVuSans-3a" d="M 750 794 
L 1409 794 
L 1409 0 
L 750 0 
L 750 794 
z
M 750 3309 
L 1409 3309 
L 1409 2516 
L 750 2516 
L 750 3309 
z
" transform="scale(0.015625)"/>
      <path id="DejaVuSans-2022" d="M 959 2381 
Q 959 2769 1229 3036 
Q 1500 3303 1894 3303 
Q 2281 3303 2548 3036 
Q 2816 2769 2816 2381 
Q 2816 1991 2547 1722 
Q 2278 1453 1888 1453 
Q 1497 1453 1228 1722 
Q 959 1991 959 2381 
z
" transform="scale(0.015625)"/>
     </defs>
     <use xlink:href="#DejaVuSans-53"/>
     <use xlink:href="#DejaVuSans-79" x="63.476562"/>
     <use xlink:href="#DejaVuSans-6d" x="122.65625"/>
     <use xlink:href="#DejaVuSans-70" x="220.068359"/>
     <use xlink:href="#DejaVuSans-74" x="283.544922"/>
     <use xlink:href="#DejaVuSans-6f" x="322.753906"/>
     <use xlink:href="#DejaVuSans-6d" x="383.935547"/>
     <use xlink:href="#DejaVuSans-73" x="481.347656"/>
     <use xlink:href="#DejaVuSans-20" x="533.447266"/>
     <use xlink:href="#DejaVuSans-69" x="565.234375"/>
     <use xlink:href="#DejaVuSans-6e" x="593.017578"/>
     <use xlink:href="#DejaVuSans-20" x="656.396484"/>
     <use xlink:href="#DejaVuSans-6d" x="688.183594"/>
     <use xlink:href="#DejaVuSans-65" x="785.595703"/>
     <use xlink:href="#DejaVuSans-74" x="847.119141"/>
     <use xlink:href="#DejaVuSans-72" x="886.328125"/>
     <use xlink:href="#DejaVuSans-69" x="927.441406"/>
     <use xlink:href="#DejaVuSans-63" x="955.224609"/>
     <use xlink:href="#DejaVuSans-73" x="1010.205078"/>
     <use xlink:href="#DejaVuSans-3a" x="1062.304688"/>
     <use xlink:href="#DejaVuSans-20" x="1095.996094"/>
     <use xlink:href="#DejaVuSans-6c" x="1127.783203"/>
     <use xlink:href="#DejaVuSans-6f" x="1155.566406"/>
     <use xlink:href="#DejaVuSans-6e" x="1216.748047"/>
     <use xlink:href="#DejaVuSans-67" x="1280.126953"/>
     <use xlink:href="#DejaVuSans-20" x="1343.603516"/>
     <use xlink:href="#DejaVuSans-6c" x="1375.390625"/>
     <use xlink:href="#DejaVuSans-65" x="1403.173828"/>
     <use xlink:href="#DejaVuSans-61" x="1464.697266"/>
     <use xlink:href="#DejaVuSans-64" x="1525.976562"/>
     <use xlink:href="#DejaVuSans-20" x="1589.453125"/>
     <use xlink:href="#DejaVuSans-74" x="1621.240234"/>
     <use xlink:href="#DejaVuSans-69" x="1660.449219"/>
     <use xlink:href="#DejaVuSans-6d" x="1688.232422"/>
     <use xlink:href="#DejaVuSans-65" x="1785.644531"/>
     <use xlink:href="#DejaVuSans-20" x="1847.167969"/>
     <use xlink:href="#DejaVuSans-2022" x="1878.955078"/>
     <use xlink:href="#DejaVuSans-20" x="1937.939453"/>
     <use xlink:href="#DejaVuSans-6c" x="1969.726562"/>
     <use xlink:href="#DejaVuSans-6f" x="1997.509766"/>
     <use xlink:href="#DejaVuSans-77" x="2058.691406"/>
     <use xlink:href="#DejaVuSans-20" x="2140.478516"/>
     <use xlink:href="#DejaVuSans-64" x="2172.265625"/>
     <use xlink:href="#DejaVuSans-65" x="2235.742188"/>
     <use xlink:href="#DejaVuSans-70" x="2297.265625"/>
     <use xlink:href="#DejaVuSans-6c" x="2360.742188"/>
     <use xlink:href="#DejaVuSans-6f" x="2388.525391"/>
     <use xlink:href="#DejaVuSans-79" x="2449.707031"/>
     <use xlink:href="#DejaVuSans-20" x="2508.886719"/>
     <use xlink:href="#DejaVuSans-66" x="2540.673828"/>
     <use xlink:href="#DejaVuSans-72" x="2575.878906"/>
     <use xlink:href="#DejaVuSans-65" x="2614.742188"/>
     <use xlink:href="#DejaVuSans-71" x="2676.265625"/>
     <use xlink:href="#DejaVuSans-75" x="2739.742188"/>
     <use xlink:href="#DejaVuSans-65" x="2803.121094"/>
     <use xlink:href="#DejaVuSans-6e" x="2864.644531"/>
     <use xlink:href="#DejaVuSans-63" x="2928.023438"/>
     <use xlink:href="#DejaVuSans-79" x="2983.003906"/>
     <use xlink:href="#DejaVuSans-20" x="3042.183594"/>
     <use xlink:href="#DejaVuSans-2022" x="3073.970703"/>
     <use xlink:href="#DejaVuSans-20" x="3132.955078"/>
     <use xlink:href="#DejaVuSans-68" x="3164.742188"/>
     <use xlink:href="#DejaVuSans-69" x="3228.121094"/>
     <use xlink:href="#DejaVuSans-67" x="3255.904297"/>
     <use xlink:href="#DejaVuSans-68" x="3319.380859"/>
     <use xlink:href="#DejaVuSans-20" x="3382.759766"/>
     <use xlink:href="#DejaVuSans-63" x="3414.546875"/>
     <use xlink:href="#DejaVuSans-68" x="3469.527344"/>
     <use xlink:href="#DejaVuSans-61" x="3532.90625"/>
     <use xlink:href="#DejaVuSans-6e" x="3594.185547"/>
     <use xlink:href="#DejaVuSans-67" x="3657.564453"/>
     <use xlink:href="#DejaVuSans-65" x="3721.041016"/>
     <use xlink:href="#DejaVuSans-20" x="3782.564453"/>
     <use xlink:href="#DejaVuSans-66" x="3814.351562"/>
     <use xlink:href="#DejaVuSans-61" x="3849.556641"/>
     <use xlink:href="#DejaVuSans-69" x="3910.835938"/>
     <use xlink:href="#DejaVuSans-6c" x="3938.619141"/>
     <use xlink:href="#DejaVuSans-75" x="3966.402344"/>
     <use xlink:href="#DejaVuSans-72" x="4029.78125"/>
     <use xlink:href="#DejaVuSans-65" x="4068.644531"/>
     <use xlink:href="#DejaVuSans-20" x="4130.167969"/>
     <use xlink:href="#DejaVuSans-72" x="4161.955078"/>
     <use xlink:href="#DejaVuSans-61" x="4203.068359"/>
     <use xlink:href="#DejaVuSans-74" x="4264.347656"/>
     <use xlink:href="#DejaVuSans-65" x="4303.556641"/>
     <use xlink:href="#DejaVuSans-20" x="4365.080078"/>
     <use xlink:href="#DejaVuSans-2022" x="4396.867188"/>
     <use xlink:href="#DejaVuSans-20" x="4455.851562"/>
     <use xlink:href="#DejaVuSans-73" x="4487.638672"/>
     <use xlink:href="#DejaVuSans-6c" x="4539.738281"/>
     <use xlink:href="#DejaVuSans-6f" x="4567.521484"/>
     <use xlink:href="#DejaVuSans-77" x="4628.703125"/>
     <use xlink:href="#DejaVuSans-20" x="4710.490234"/>
     <use xlink:href="#DejaVuSans-74" x="4742.277344"/>
     <use xlink:href="#DejaVuSans-69" x="4781.486328"/>
     <use xlink:href="#DejaVuSans-6d" x="4809.269531"/>
     <use xlink:href="#DejaVuSans-65" x="4906.681641"/>
     <use xlink:href="#DejaVuSans-20" x="4968.205078"/>
     <use xlink:href="#DejaVuSans-74" x="4999.992188"/>
     <use xlink:href="#DejaVuSans-6f" x="5039.201172"/>
     <use xlink:href="#DejaVuSans-20" x="5100.382812"/>
     <use xlink:href="#DejaVuSans-72" x="5132.169922"/>
     <use xlink:href="#DejaVuSans-65" x="5171.033203"/>
     <use xlink:href="#DejaVuSans-73" x="5232.556641"/>
     <use xlink:href="#DejaVuSans-74" x="5284.65625"/>
     <use xlink:href="#DejaVuSans-6f" x="5323.865234"/>
     <use xlink:href="#DejaVuSans-72" x="5385.046875"/>
     <use xlink:href="#DejaVuSans-65" x="5423.910156"/>
    </g>
   </g>
   <g id="text_15">
    <!-- Commit → Customer: Where Flow Breaks in Real Organisations -->
    <g style="fill: #333333" transform="translate(296.365 17.077969) scale(0.13 -0.13)">
     <defs>
      <path id="DejaVuSans-2192" d="M 5050 2147 
L 5050 1866 
L 3822 638 
L 3447 1013 
L 4175 1741 
L 366 1741 
L 366 2272 
L 4175 2272 
L 3447 3000 
L 3822 3375 
L 5050 2147 
z
" transform="scale(0.015625)"/>
      <path id="DejaVuSans-57" d="M 213 4666 
L 850 4666 
L 1831 722 
L 2809 4666 
L 3519 4666 
L 4500 722 
L 5478 4666 
L 6119 4666 
L 4947 0 
L 4153 0 
L 3169 4050 
L 2175 0 
L 1381 0 
L 213 4666 
z
" transform="scale(0.015625)"/>
      <path id="DejaVuSans-52" d="M 2841 2188 
Q 3044 2119 3236 1894 
Q 3428 1669 3622 1275 
L 4263 0 
L 3584 0 
L 2988 1197 
Q 2756 1666 2539 1819 
Q 2322 1972 1947 1972 
L 1259 1972 
L 1259 0 
L 628 0 
L 628 4666 
L 2053 4666 
Q 2853 4666 3247 4331 
Q 3641 3997 3641 3322 
Q 3641 2881 3436 2590 
Q 3231 2300 2841 2188 
z
M 1259 4147 
L 1259 2491 
L 2053 2491 
Q 2509 2491 2742 2702 
Q 2975 2913 2975 3322 
Q 2975 3731 2742 3939 
Q 2509 4147 2053 4147 
L 1259 4147 
z
" transform="scale(0.015625)"/>
     </defs>
     <use xlink:href="#DejaVuSans-43"/>
     <use xlink:href="#DejaVuSans-6f" x="69.824219"/>
     <use xlink:href="#DejaVuSans-6d" x="131.005859"/>
     <use xlink:href="#DejaVuSans-6d" x="228.417969"/>
     <use xlink:href="#DejaVuSans-69" x="325.830078"/>
     <use xlink:href="#DejaVuSans-74" x="353.613281"/>
     <use xlink:href="#DejaVuSans-20" x="392.822266"/>
     <use xlink:href="#DejaVuSans-2192" x="424.609375"/>
     <use xlink:href="#DejaVuSans-20" x="508.398438"/>
     <use xlink:href="#DejaVuSans-43" x="540.185547"/>
     <use xlink:href="#DejaVuSans-75" x="610.009766"/>
     <use xlink:href="#DejaVuSans-73" x="673.388672"/>
     <use xlink:href="#DejaVuSans-74" x="725.488281"/>
     <use xlink:href="#DejaVuSans-6f" x="764.697266"/>
     <use xlink:href="#DejaVuSans-6d" x="825.878906"/>
     <use xlink:href="#DejaVuSans-65" x="923.291016"/>
     <use xlink:href="#DejaVuSans-72" x="984.814453"/>
     <use xlink:href="#DejaVuSans-3a" x="1024.177734"/>
     <use xlink:href="#DejaVuSans-20" x="1057.869141"/>
     <use xlink:href="#DejaVuSans-57" x="1089.65625"/>
     <use xlink:href="#DejaVuSans-68" x="1188.533203"/>
     <use xlink:href="#DejaVuSans-65" x="1251.912109"/>
     <use xlink:href="#DejaVuSans-72" x="1313.435547"/>
     <use xlink:href="#DejaVuSans-65" x="1352.298828"/>
     <use xlink:href="#DejaVuSans-20" x="1413.822266"/>
     <use xlink:href="#DejaVuSans-46" x="1445.609375"/>
     <use xlink:href="#DejaVuSans-6c" x="1503.128906"/>
     <use xlink:href="#DejaVuSans-6f" x="1530.912109"/>
     <use xlink:href="#DejaVuSans-77" x="1592.09375"/>
     <use xlink:href="#DejaVuSans-20" x="1673.880859"/>
     <use xlink:href="#DejaVuSans-42" x="1705.667969"/>
     <use xlink:href="#DejaVuSans-72" x="1774.271484"/>
     <use xlink:href="#DejaVuSans-65" x="1813.134766"/>
     <use xlink:href="#DejaVuSans-61" x="1874.658203"/>
     <use xlink:href="#DejaVuSans-6b" x="1935.9375"/>
     <use xlink:href="#DejaVuSans-73" x="1993.847656"/>
     <use xlink:href="#DejaVuSans-20" x="2045.947266"/>
     <use xlink:href="#DejaVuSans-69" x="2077.734375"/>
     <use xlink:href="#DejaVuSans-6e" x="2105.517578"/>
     <use xlink:href="#DejaVuSans-20" x="2168.896484"/>
     <use xlink:href="#DejaVuSans-52" x="2200.683594"/>
     <use xlink:href="#DejaVuSans-65" x="2265.666016"/>
     <use xlink:href="#DejaVuSans-61" x="2327.189453"/>
     <use xlink:href="#DejaVuSans-6c" x="2388.46875"/>
     <use xlink:href="#DejaVuSans-20" x="2416.251953"/>
     <use xlink:href="#DejaVuSans-4f" x="2448.039062"/>
     <use xlink:href="#DejaVuSans-72" x="2526.75"/>
     <use xlink:href="#DejaVuSans-67" x="2566.113281"/>
     <use xlink:href="#DejaVuSans-61" x="2629.589844"/>
     <use xlink:href="#DejaVuSans-6e" x="2690.869141"/>
     <use xlink:href="#DejaVuSans-69" x="2754.248047"/>
     <use xlink:href="#DejaVuSans-73" x="2782.03125"/>
     <use xlink:href="#DejaVuSans-61" x="2834.130859"/>
     <use xlink:href="#DejaVuSans-74" x="2895.410156"/>
     <use xlink:href="#DejaVuSans-69" x="2934.619141"/>
     <use xlink:href="#DejaVuSans-6f" x="2962.402344"/>
     <use xlink:href="#DejaVuSans-6e" x="3023.583984"/>
     <use xlink:href="#DejaVuSans-73" x="3086.962891"/>
    </g>
   </g>
  </g>
 </g>
 <defs>
  <clipPath id="pab60dc25be">
   <rect x="7.2" y="33.077969" width="986.4" height="291.512453"/>
  </clipPath>
 </defs>
</svg>
