<?xml version="1.0" encoding="utf-8" standalone="no"?>
<!DOCTYPE svg PUBLIC "-//W3C//DTD SVG 1.1//EN"
  "http://www.w3.org/Graphics/SVG/1.1/DTD/svg11.dtd">
<svg xmlns:xlink="http://www.w3.org/1999/xlink" width="1134.102233pt" height="439.477969pt" viewBox="0 0 1134.102233 439.477969" xmlns="http://www.w3.org/2000/svg" version="1.1">
 <metadata>
  <rdf:RDF xmlns:dc="http://purl.org/dc/elements/1.1/" xmlns:cc="http://creativecommons.org/ns#" xmlns:rdf="http://www.w3.org/1999/02/22-rdf-syntax-ns#">
   <cc:Work>
    <dc:type rdf:resource="http://purl.org/dc/dcmitype/StillImage"/>
    <dc:date>2025-08-31T19:13:26.303279</dc:date>
    <dc:format>image/svg+xml</dc:format>
    <dc:creator>
     <cc:Agent>
      <dc:title>Matplotlib v3.6.3, https://matplotlib.org/</dc:title>
     </cc:Agent>
    </dc:creator>
   </cc:Work>
  </rdf:RDF>
 </metadata>
 <defs>
  <style type="text/css">*{stroke-linejoin: round; stroke-linecap: butt}</style>
 </defs>
 <g id="figure_1">
  <g id="patch_1">
   <path d="M 0 439.477969 
L 1134.102233 439.477969 
L 1134.102233 0 
L 0 0 
z
" style="fill: #ffffff"/>
  </g>
  <g id="axes_1">
   <g id="LineCollection_1">
    <path d="M 46.598781 231.677969 
L 1116.866781 231.677969 
" clip-path="url(#pdfa459593b)" style="fill: none; stroke: #e69f00; stroke-width: 2"/>
   </g>
   <g id="LineCollection_2">
    <path d="M 68.004141 241.707969 
L 68.004141 221.647969 
" clip-path="url(#pdfa459593b)" style="fill: none; stroke: #e69f00"/>
   </g>
   <g id="LineCollection_3">
    <path d="M 153.625581 241.707969 
L 153.625581 221.647969 
" clip-path="url(#pdfa459593b)" style="fill: none; stroke: #e69f00"/>
   </g>
   <g id="LineCollection_4">
    <path d="M 239.247021 241.707969 
L 239.247021 221.647969 
" clip-path="url(#pdfa459593b)" style="fill: none; stroke: #e69f00"/>
   </g>
   <g id="LineCollection_5">
    <path d="M 324.868461 241.707969 
L 324.868461 221.647969 
" clip-path="url(#pdfa459593b)" style="fill: none; stroke: #e69f00"/>
   </g>
   <g id="LineCollection_6">
    <path d="M 410.489901 241.707969 
L 410.489901 221.647969 
" clip-path="url(#pdfa459593b)" style="fill: none; stroke: #e69f00"/>
   </g>
   <g id="LineCollection_7">
    <path d="M 496.111341 241.707969 
L 496.111341 221.647969 
" clip-path="url(#pdfa459593b)" style="fill: none; stroke: #e69f00"/>
   </g>
   <g id="LineCollection_8">
    <path d="M 581.732781 241.707969 
L 581.732781 221.647969 
" clip-path="url(#pdfa459593b)" style="fill: none; stroke: #e69f00"/>
   </g>
   <g id="LineCollection_9">
    <path d="M 667.354221 241.707969 
L 667.354221 221.647969 
" clip-path="url(#pdfa459593b)" style="fill: none; stroke: #e69f00"/>
   </g>
   <g id="LineCollection_10">
    <path d="M 752.975661 241.707969 
L 752.975661 221.647969 
" clip-path="url(#pdfa459593b)" style="fill: none; stroke: #e69f00"/>
   </g>
   <g id="LineCollection_11">
    <path d="M 838.597101 241.707969 
L 838.597101 221.647969 
" clip-path="url(#pdfa459593b)" style="fill: none; stroke: #e69f00"/>
   </g>
   <g id="LineCollection_12">
    <path d="M 924.218541 241.707969 
L 924.218541 221.647969 
" clip-path="url(#pdfa459593b)" style="fill: none; stroke: #e69f00"/>
   </g>
   <g id="LineCollection_13">
    <path d="M 1009.839981 241.707969 
L 1009.839981 221.647969 
" clip-path="url(#pdfa459593b)" style="fill: none; stroke: #e69f00"/>
   </g>
   <g id="LineCollection_14">
    <path d="M 1095.461421 241.707969 
L 1095.461421 221.647969 
" clip-path="url(#pdfa459593b)" style="fill: none; stroke: #e69f00"/>
   </g>
   <g id="line2d_1">
    <path d="M 68.004141 231.677969 
" clip-path="url(#pdfa459593b)" style="fill: none; stroke: #e69f00; stroke-width: 1.5; stroke-linecap: square"/>
    <defs>
     <path id="me577d89f27" d="M 0 2.5 
C 0.663008 2.5 1.29895 2.236584 1.767767 1.767767 
C 2.236584 1.29895 2.5 0.663008 2.5 0 
C 2.5 -0.663008 2.236584 -1.29895 1.767767 -1.767767 
C 1.29895 -2.236584 0.663008 -2.5 0 -2.5 
C -0.663008 -2.5 -1.29895 -2.236584 -1.767767 -1.767767 
C -2.236584 -1.29895 -2.5 -0.663008 -2.5 0 
C -2.5 0.663008 -2.236584 1.29895 -1.767767 1.767767 
C -1.29895 2.236584 -0.663008 2.5 0 2.5 
z
"/>
    </defs>
    <g clip-path="url(#pdfa459593b)">
     <use xlink:href="#me577d89f27" x="68.004141" y="231.677969" style="fill: #e69f00"/>
    </g>
   </g>
   <g id="LineCollection_15">
    <path d="M 68.004141 231.677969 
L 68.004141 121.347969 
" clip-path="url(#pdfa459593b)" style="fill: none; stroke-dasharray: 1,1.65; stroke-dashoffset: 0; stroke: #e69f00"/>
   </g>
   <g id="line2d_2">
    <path d="M 239.247021 231.677969 
" clip-path="url(#pdfa459593b)" style="fill: none; stroke: #56b4e9; stroke-width: 1.5; stroke-linecap: square"/>
    <defs>
     <path id="mc35d32f72c" d="M 0 2.5 
C 0.663008 2.5 1.29895 2.236584 1.767767 1.767767 
C 2.236584 1.29895 2.5 0.663008 2.5 0 
C 2.5 -0.663008 2.236584 -1.29895 1.767767 -1.767767 
C 1.29895 -2.236584 0.663008 -2.5 0 -2.5 
C -0.663008 -2.5 -1.29895 -2.236584 -1.767767 -1.767767 
C -2.236584 -1.29895 -2.5 -0.663008 -2.5 0 
C -2.5 0.663008 -2.236584 1.29895 -1.767767 1.767767 
C -1.29895 2.236584 -0.663008 2.5 0 2.5 
z
"/>
    </defs>
    <g clip-path="url(#pdfa459593b)">
     <use xlink:href="#mc35d32f72c" x="239.247021" y="231.677969" style="fill: #56b4e9"/>
    </g>
   </g>
   <g id="LineCollection_16">
    <path d="M 239.247021 342.007969 
L 239.247021 231.677969 
" clip-path="url(#pdfa459593b)" style="fill: none; stroke-dasharray: 1,1.65; stroke-dashoffset: 0; stroke: #e69f00"/>
   </g>
   <g id="line2d_3">
    <path d="M 423.333117 231.677969 
" clip-path="url(#pdfa459593b)" style="fill: none; stroke: #009e73; stroke-width: 1.5; stroke-linecap: square"/>
    <defs>
     <path id="mf9fd8fa7e8" d="M 0 2.5 
C 0.663008 2.5 1.29895 2.236584 1.767767 1.767767 
C 2.236584 1.29895 2.5 0.663008 2.5 0 
C 2.5 -0.663008 2.236584 -1.29895 1.767767 -1.767767 
C 1.29895 -2.236584 0.663008 -2.5 0 -2.5 
C -0.663008 -2.5 -1.29895 -2.236584 -1.767767 -1.767767 
C -2.236584 -1.29895 -2.5 -0.663008 -2.5 0 
C -2.5 0.663008 -2.236584 1.29895 -1.767767 1.767767 
C -1.29895 2.236584 -0.663008 2.5 0 2.5 
z
"/>
    </defs>
    <g clip-path="url(#pdfa459593b)">
     <use xlink:href="#mf9fd8fa7e8" x="423.333117" y="231.677969" style="fill: #009e73"/>
    </g>
   </g>
   <g id="LineCollection_17">
    <path d="M 423.333117 231.677969 
L 423.333117 71.197969 
" clip-path="url(#pdfa459593b)" style="fill: none; stroke-dasharray: 1,1.65; stroke-dashoffset: 0; stroke: #e69f00"/>
   </g>
   <g id="line2d_4">
    <path d="M 444.738477 231.677969 
" clip-path="url(#pdfa459593b)" style="fill: none; stroke: #f0e442; stroke-width: 1.5; stroke-linecap: square"/>
    <defs>
     <path id="mabe4f1675a" d="M 0 2.5 
C 0.663008 2.5 1.29895 2.236584 1.767767 1.767767 
C 2.236584 1.29895 2.5 0.663008 2.5 0 
C 2.5 -0.663008 2.236584 -1.29895 1.767767 -1.767767 
C 1.29895 -2.236584 0.663008 -2.5 0 -2.5 
C -0.663008 -2.5 -1.29895 -2.236584 -1.767767 -1.767767 
C -2.236584 -1.29895 -2.5 -0.663008 -2.5 0 
C -2.5 0.663008 -2.236584 1.29895 -1.767767 1.767767 
C -1.29895 2.236584 -0.663008 2.5 0 2.5 
z
"/>
    </defs>
    <g clip-path="url(#pdfa459593b)">
     <use xlink:href="#mabe4f1675a" x="444.738477" y="231.677969" style="fill: #f0e442"/>
    </g>
   </g>
   <g id="LineCollection_18">
    <path d="M 444.738477 392.157969 
L 444.738477 231.677969 
" clip-path="url(#pdfa459593b)" style="fill: none; stroke-dasharray: 1,1.65; stroke-dashoffset: 0; stroke: #e69f00"/>
   </g>
   <g id="line2d_5">
    <path d="M 461.862765 231.677969 
" clip-path="url(#pdfa459593b)" style="fill: none; stroke: #0072b2; stroke-width: 1.5; stroke-linecap: square"/>
    <defs>
     <path id="m563a45b313" d="M 0 2.5 
C 0.663008 2.5 1.29895 2.236584 1.767767 1.767767 
C 2.236584 1.29895 2.5 0.663008 2.5 0 
C 2.5 -0.663008 2.236584 -1.29895 1.767767 -1.767767 
C 1.29895 -2.236584 0.663008 -2.5 0 -2.5 
C -0.663008 -2.5 -1.29895 -2.236584 -1.767767 -1.767767 
C -2.236584 -1.29895 -2.5 -0.663008 -2.5 0 
C -2.5 0.663008 -2.236584 1.29895 -1.767767 1.767767 
C -1.29895 2.236584 -0.663008 2.5 0 2.5 
z
"/>
    </defs>
    <g clip-path="url(#pdfa459593b)">
     <use xlink:href="#m563a45b313" x="461.862765" y="231.677969" style="fill: #0072b2"/>
    </g>
   </g>
   <g id="LineCollection_19">
    <path d="M 461.862765 231.677969 
L 461.862765 121.347969 
" clip-path="url(#pdfa459593b)" style="fill: none; stroke-dasharray: 1,1.65; stroke-dashoffset: 0; stroke: #e69f00"/>
   </g>
   <g id="line2d_6">
    <path d="M 538.922061 231.677969 
" clip-path="url(#pdfa459593b)" style="fill: none; stroke: #d55e00; stroke-width: 1.5; stroke-linecap: square"/>
    <defs>
     <path id="mac7d397419" d="M 0 2.5 
C 0.663008 2.5 1.29895 2.236584 1.767767 1.767767 
C 2.236584 1.29895 2.5 0.663008 2.5 0 
C 2.5 -0.663008 2.236584 -1.29895 1.767767 -1.767767 
C 1.29895 -2.236584 0.663008 -2.5 0 -2.5 
C -0.663008 -2.5 -1.29895 -2.236584 -1.767767 -1.767767 
C -2.236584 -1.29895 -2.5 -0.663008 -2.5 0 
C -2.5 0.663008 -2.236584 1.29895 -1.767767 1.767767 
C -1.29895 2.236584 -0.663008 2.5 0 2.5 
z
"/>
    </defs>
    <g clip-path="url(#pdfa459593b)">
     <use xlink:href="#mac7d397419" x="538.922061" y="231.677969" style="fill: #d55e00"/>
    </g>
   </g>
   <g id="LineCollection_20">
    <path d="M 538.922061 342.007969 
L 538.922061 231.677969 
" clip-path="url(#pdfa459593b)" style="fill: none; stroke-dasharray: 1,1.65; stroke-dashoffset: 0; stroke: #e69f00"/>
   </g>
   <g id="line2d_7">
    <path d="M 624.543501 231.677969 
" clip-path="url(#pdfa459593b)" style="fill: none; stroke: #cc79a7; stroke-width: 1.5; stroke-linecap: square"/>
    <defs>
     <path id="m0c8e52d0e6" d="M 0 2.5 
C 0.663008 2.5 1.29895 2.236584 1.767767 1.767767 
C 2.236584 1.29895 2.5 0.663008 2.5 0 
C 2.5 -0.663008 2.236584 -1.29895 1.767767 -1.767767 
C 1.29895 -2.236584 0.663008 -2.5 0 -2.5 
C -0.663008 -2.5 -1.29895 -2.236584 -1.767767 -1.767767 
C -2.236584 -1.29895 -2.5 -0.663008 -2.5 0 
C -2.5 0.663008 -2.236584 1.29895 -1.767767 1.767767 
C -1.29895 2.236584 -0.663008 2.5 0 2.5 
z
"/>
    </defs>
    <g clip-path="url(#pdfa459593b)">
     <use xlink:href="#m0c8e52d0e6" x="624.543501" y="231.677969" style="fill: #cc79a7"/>
    </g>
   </g>
   <g id="LineCollection_21">
    <path d="M 624.543501 231.677969 
L 624.543501 71.197969 
" clip-path="url(#pdfa459593b)" style="fill: none; stroke-dasharray: 1,1.65; stroke-dashoffset: 0; stroke: #e69f00"/>
   </g>
   <g id="line2d_8">
    <path d="M 688.759581 231.677969 
" clip-path="url(#pdfa459593b)" style="fill: none; stroke: #000000; stroke-width: 1.5; stroke-linecap: square"/>
    <defs>
     <path id="m2aa20b8a9f" d="M 0 2.5 
C 0.663008 2.5 1.29895 2.236584 1.767767 1.767767 
C 2.236584 1.29895 2.5 0.663008 2.5 0 
C 2.5 -0.663008 2.236584 -1.29895 1.767767 -1.767767 
C 1.29895 -2.236584 0.663008 -2.5 0 -2.5 
C -0.663008 -2.5 -1.29895 -2.236584 -1.767767 -1.767767 
C -2.236584 -1.29895 -2.5 -0.663008 -2.5 0 
C -2.5 0.663008 -2.236584 1.29895 -1.767767 1.767767 
C -1.29895 2.236584 -0.663008 2.5 0 2.5 
z
"/>
    </defs>
    <g clip-path="url(#pdfa459593b)">
     <use xlink:href="#m2aa20b8a9f" x="688.759581" y="231.677969"/>
    </g>
   </g>
   <g id="LineCollection_22">
    <path d="M 688.759581 392.157969 
L 688.759581 231.677969 
" clip-path="url(#pdfa459593b)" style="fill: none; stroke-dasharray: 1,1.65; stroke-dashoffset: 0; stroke: #e69f00"/>
   </g>
   <g id="line2d_9">
    <path d="M 731.570301 231.677969 
" clip-path="url(#pdfa459593b)" style="fill: none; stroke: #e69f00; stroke-width: 1.5; stroke-linecap: square"/>
    <g clip-path="url(#pdfa459593b)">
     <use xlink:href="#me577d89f27" x="731.570301" y="231.677969" style="fill: #e69f00"/>
    </g>
   </g>
   <g id="LineCollection_23">
    <path d="M 731.570301 231.677969 
L 731.570301 121.347969 
" clip-path="url(#pdfa459593b)" style="fill: none; stroke-dasharray: 1,1.65; stroke-dashoffset: 0; stroke: #e69f00"/>
   </g>
   <g id="line2d_10">
    <path d="M 795.786381 231.677969 
" clip-path="url(#pdfa459593b)" style="fill: none; stroke: #56b4e9; stroke-width: 1.5; stroke-linecap: square"/>
    <g clip-path="url(#pdfa459593b)">
     <use xlink:href="#mc35d32f72c" x="795.786381" y="231.677969" style="fill: #56b4e9"/>
    </g>
   </g>
   <g id="LineCollection_24">
    <path d="M 795.786381 342.007969 
L 795.786381 231.677969 
" clip-path="url(#pdfa459593b)" style="fill: none; stroke-dasharray: 1,1.65; stroke-dashoffset: 0; stroke: #e69f00"/>
   </g>
   <g id="line2d_11">
    <path d="M 860.002461 231.677969 
" clip-path="url(#pdfa459593b)" style="fill: none; stroke: #009e73; stroke-width: 1.5; stroke-linecap: square"/>
    <g clip-path="url(#pdfa459593b)">
     <use xlink:href="#mf9fd8fa7e8" x="860.002461" y="231.677969" style="fill: #009e73"/>
    </g>
   </g>
   <g id="LineCollection_25">
    <path d="M 860.002461 231.677969 
L 860.002461 71.197969 
" clip-path="url(#pdfa459593b)" style="fill: none; stroke-dasharray: 1,1.65; stroke-dashoffset: 0; stroke: #e69f00"/>
   </g>
   <g id="line2d_12">
    <path d="M 902.813181 231.677969 
" clip-path="url(#pdfa459593b)" style="fill: none; stroke: #f0e442; stroke-width: 1.5; stroke-linecap: square"/>
    <g clip-path="url(#pdfa459593b)">
     <use xlink:href="#mabe4f1675a" x="902.813181" y="231.677969" style="fill: #f0e442"/>
    </g>
   </g>
   <g id="LineCollection_26">
    <path d="M 902.813181 392.157969 
L 902.813181 231.677969 
" clip-path="url(#pdfa459593b)" style="fill: none; stroke-dasharray: 1,1.65; stroke-dashoffset: 0; stroke: #e69f00"/>
   </g>
   <g id="line2d_13">
    <path d="M 937.061757 231.677969 
" clip-path="url(#pdfa459593b)" style="fill: none; stroke: #0072b2; stroke-width: 1.5; stroke-linecap: square"/>
    <g clip-path="url(#pdfa459593b)">
     <use xlink:href="#m563a45b313" x="937.061757" y="231.677969" style="fill: #0072b2"/>
    </g>
   </g>
   <g id="LineCollection_27">
    <path d="M 937.061757 231.677969 
L 937.061757 121.347969 
" clip-path="url(#pdfa459593b)" style="fill: none; stroke-dasharray: 1,1.65; stroke-dashoffset: 0; stroke: #e69f00"/>
   </g>
   <g id="line2d_14">
    <path d="M 979.872477 231.677969 
" clip-path="url(#pdfa459593b)" style="fill: none; stroke: #d55e00; stroke-width: 1.5; stroke-linecap: square"/>
    <g clip-path="url(#pdfa459593b)">
     <use xlink:href="#mac7d397419" x="979.872477" y="231.677969" style="fill: #d55e00"/>
    </g>
   </g>
   <g id="LineCollection_28">
    <path d="M 979.872477 342.007969 
L 979.872477 231.677969 
" clip-path="url(#pdfa459593b)" style="fill: none; stroke-dasharray: 1,1.65; stroke-dashoffset: 0; stroke: #e69f00"/>
   </g>
   <g id="line2d_15">
    <path d="M 1035.526413 231.677969 
" clip-path="url(#pdfa459593b)" style="fill: none; stroke: #cc79a7; stroke-width: 1.5; stroke-linecap: square"/>
    <g clip-path="url(#pdfa459593b)">
     <use xlink:href="#m0c8e52d0e6" x="1035.526413" y="231.677969" style="fill: #cc79a7"/>
    </g>
   </g>
   <g id="LineCollection_29">
    <path d="M 1035.526413 231.677969 
L 1035.526413 71.197969 
" clip-path="url(#pdfa459593b)" style="fill: none; stroke-dasharray: 1,1.65; stroke-dashoffset: 0; stroke: #e69f00"/>
   </g>
   <g id="line2d_16">
    <path d="M 1074.056061 231.677969 
" clip-path="url(#pdfa459593b)" style="fill: none; stroke: #000000; stroke-width: 1.5; stroke-linecap: square"/>
    <g clip-path="url(#pdfa459593b)">
     <use xlink:href="#m2aa20b8a9f" x="1074.056061" y="231.677969"/>
    </g>
   </g>
   <g id="LineCollection_30">
    <path d="M 1074.056061 392.157969 
L 1074.056061 231.677969 
" clip-path="url(#pdfa459593b)" style="fill: none; stroke-dasharray: 1,1.65; stroke-dashoffset: 0; stroke: #e69f00"/>
   </g>
   <g id="text_1">
    <!-- 2001 -->
    <g style="fill: #333333" transform="translate(56.551641 276.129062) scale(0.09 -0.09)">
     <defs>
      <path id="DejaVuSans-32" d="M 1228 531 
L 3431 531 
L 3431 0 
L 469 0 
L 469 531 
Q 828 903 1448 1529 
Q 2069 2156 2228 2338 
Q 2531 2678 2651 2914 
Q 2772 3150 2772 3378 
Q 2772 3750 2511 3984 
Q 2250 4219 1831 4219 
Q 1534 4219 1204 4116 
Q 875 4013 500 3803 
L 500 4441 
Q 881 4594 1212 4672 
Q 1544 4750 1819 4750 
Q 2544 4750 2975 4387 
Q 3406 4025 3406 3419 
Q 3406 3131 3298 2873 
Q 3191 2616 2906 2266 
Q 2828 2175 2409 1742 
Q 1991 1309 1228 531 
z
" transform="scale(0.015625)"/>
      <path id="DejaVuSans-30" d="M 2034 4250 
Q 1547 4250 1301 3770 
Q 1056 3291 1056 2328 
Q 1056 1369 1301 889 
Q 1547 409 2034 409 
Q 2525 409 2770 889 
Q 3016 1369 3016 2328 
Q 3016 3291 2770 3770 
Q 2525 4250 2034 4250 
z
M 2034 4750 
Q 2819 4750 3233 4129 
Q 3647 3509 3647 2328 
Q 3647 1150 3233 529 
Q 2819 -91 2034 -91 
Q 1250 -91 836 529 
Q 422 1150 422 2328 
Q 422 3509 836 4129 
Q 1250 4750 2034 4750 
z
" transform="scale(0.015625)"/>
      <path id="DejaVuSans-31" d="M 794 531 
L 1825 531 
L 1825 4091 
L 703 3866 
L 703 4441 
L 1819 4666 
L 2450 4666 
L 2450 531 
L 3481 531 
L 3481 0 
L 794 0 
L 794 531 
z
" transform="scale(0.015625)"/>
     </defs>
     <use xlink:href="#DejaVuSans-32"/>
     <use xlink:href="#DejaVuSans-30" x="63.623047"/>
     <use xlink:href="#DejaVuSans-30" x="127.246094"/>
     <use xlink:href="#DejaVuSans-31" x="190.869141"/>
    </g>
   </g>
   <g id="text_2">
    <!-- 2003 -->
    <g style="fill: #333333" transform="translate(142.173081 276.129062) scale(0.09 -0.09)">
     <defs>
      <path id="DejaVuSans-33" d="M 2597 2516 
Q 3050 2419 3304 2112 
Q 3559 1806 3559 1356 
Q 3559 666 3084 287 
Q 2609 -91 1734 -91 
Q 1441 -91 1130 -33 
Q 819 25 488 141 
L 488 750 
Q 750 597 1062 519 
Q 1375 441 1716 441 
Q 2309 441 2620 675 
Q 2931 909 2931 1356 
Q 2931 1769 2642 2001 
Q 2353 2234 1838 2234 
L 1294 2234 
L 1294 2753 
L 1863 2753 
Q 2328 2753 2575 2939 
Q 2822 3125 2822 3475 
Q 2822 3834 2567 4026 
Q 2313 4219 1838 4219 
Q 1578 4219 1281 4162 
Q 984 4106 628 3988 
L 628 4550 
Q 988 4650 1302 4700 
Q 1616 4750 1894 4750 
Q 2613 4750 3031 4423 
Q 3450 4097 3450 3541 
Q 3450 3153 3228 2886 
Q 3006 2619 2597 2516 
z
" transform="scale(0.015625)"/>
     </defs>
     <use xlink:href="#DejaVuSans-32"/>
     <use xlink:href="#DejaVuSans-30" x="63.623047"/>
     <use xlink:href="#DejaVuSans-30" x="127.246094"/>
     <use xlink:href="#DejaVuSans-33" x="190.869141"/>
    </g>
   </g>
   <g id="text_3">
    <!-- 2005 -->
    <g style="fill: #333333" transform="translate(227.794521 276.129062) scale(0.09 -0.09)">
     <defs>
      <path id="DejaVuSans-35" d="M 691 4666 
L 3169 4666 
L 3169 4134 
L 1269 4134 
L 1269 2991 
Q 1406 3038 1543 3061 
Q 1681 3084 1819 3084 
Q 2600 3084 3056 2656 
Q 3513 2228 3513 1497 
Q 3513 744 3044 326 
Q 2575 -91 1722 -91 
Q 1428 -91 1123 -41 
Q 819 9 494 109 
L 494 744 
Q 775 591 1075 516 
Q 1375 441 1709 441 
Q 2250 441 2565 725 
Q 2881 1009 2881 1497 
Q 2881 1984 2565 2268 
Q 2250 2553 1709 2553 
Q 1456 2553 1204 2497 
Q 953 2441 691 2322 
L 691 4666 
z
" transform="scale(0.015625)"/>
     </defs>
     <use xlink:href="#DejaVuSans-32"/>
     <use xlink:href="#DejaVuSans-30" x="63.623047"/>
     <use xlink:href="#DejaVuSans-30" x="127.246094"/>
     <use xlink:href="#DejaVuSans-35" x="190.869141"/>
    </g>
   </g>
   <g id="text_4">
    <!-- 2007 -->
    <g style="fill: #333333" transform="translate(313.415961 276.129062) scale(0.09 -0.09)">
     <defs>
      <path id="DejaVuSans-37" d="M 525 4666 
L 3525 4666 
L 3525 4397 
L 1831 0 
L 1172 0 
L 2766 4134 
L 525 4134 
L 525 4666 
z
" transform="scale(0.015625)"/>
     </defs>
     <use xlink:href="#DejaVuSans-32"/>
     <use xlink:href="#DejaVuSans-30" x="63.623047"/>
     <use xlink:href="#DejaVuSans-30" x="127.246094"/>
     <use xlink:href="#DejaVuSans-37" x="190.869141"/>
    </g>
   </g>
   <g id="text_5">
    <!-- 2009 -->
    <g style="fill: #333333" transform="translate(399.037401 276.129062) scale(0.09 -0.09)">
     <defs>
      <path id="DejaVuSans-39" d="M 703 97 
L 703 672 
Q 941 559 1184 500 
Q 1428 441 1663 441 
Q 2288 441 2617 861 
Q 2947 1281 2994 2138 
Q 2813 1869 2534 1725 
Q 2256 1581 1919 1581 
Q 1219 1581 811 2004 
Q 403 2428 403 3163 
Q 403 3881 828 4315 
Q 1253 4750 1959 4750 
Q 2769 4750 3195 4129 
Q 3622 3509 3622 2328 
Q 3622 1225 3098 567 
Q 2575 -91 1691 -91 
Q 1453 -91 1209 -44 
Q 966 3 703 97 
z
M 1959 2075 
Q 2384 2075 2632 2365 
Q 2881 2656 2881 3163 
Q 2881 3666 2632 3958 
Q 2384 4250 1959 4250 
Q 1534 4250 1286 3958 
Q 1038 3666 1038 3163 
Q 1038 2656 1286 2365 
Q 1534 2075 1959 2075 
z
" transform="scale(0.015625)"/>
     </defs>
     <use xlink:href="#DejaVuSans-32"/>
     <use xlink:href="#DejaVuSans-30" x="63.623047"/>
     <use xlink:href="#DejaVuSans-30" x="127.246094"/>
     <use xlink:href="#DejaVuSans-39" x="190.869141"/>
    </g>
   </g>
   <g id="text_6">
    <!-- 2011 -->
    <g style="fill: #333333" transform="translate(484.658841 276.129062) scale(0.09 -0.09)">
     <use xlink:href="#DejaVuSans-32"/>
     <use xlink:href="#DejaVuSans-30" x="63.623047"/>
     <use xlink:href="#DejaVuSans-31" x="127.246094"/>
     <use xlink:href="#DejaVuSans-31" x="190.869141"/>
    </g>
   </g>
   <g id="text_7">
    <!-- 2013 -->
    <g style="fill: #333333" transform="translate(570.280281 276.129062) scale(0.09 -0.09)">
     <use xlink:href="#DejaVuSans-32"/>
     <use xlink:href="#DejaVuSans-30" x="63.623047"/>
     <use xlink:href="#DejaVuSans-31" x="127.246094"/>
     <use xlink:href="#DejaVuSans-33" x="190.869141"/>
    </g>
   </g>
   <g id="text_8">
    <!-- 2015 -->
    <g style="fill: #333333" transform="translate(655.901721 276.129062) scale(0.09 -0.09)">
     <use xlink:href="#DejaVuSans-32"/>
     <use xlink:href="#DejaVuSans-30" x="63.623047"/>
     <use xlink:href="#DejaVuSans-31" x="127.246094"/>
     <use xlink:href="#DejaVuSans-35" x="190.869141"/>
    </g>
   </g>
   <g id="text_9">
    <!-- 2017 -->
    <g style="fill: #333333" transform="translate(741.523161 276.129062) scale(0.09 -0.09)">
     <use xlink:href="#DejaVuSans-32"/>
     <use xlink:href="#DejaVuSans-30" x="63.623047"/>
     <use xlink:href="#DejaVuSans-31" x="127.246094"/>
     <use xlink:href="#DejaVuSans-37" x="190.869141"/>
    </g>
   </g>
   <g id="text_10">
    <!-- 2019 -->
    <g style="fill: #333333" transform="translate(827.144601 276.129062) scale(0.09 -0.09)">
     <use xlink:href="#DejaVuSans-32"/>
     <use xlink:href="#DejaVuSans-30" x="63.623047"/>
     <use xlink:href="#DejaVuSans-31" x="127.246094"/>
     <use xlink:href="#DejaVuSans-39" x="190.869141"/>
    </g>
   </g>
   <g id="text_11">
    <!-- 2021 -->
    <g style="fill: #333333" transform="translate(912.766041 276.129062) scale(0.09 -0.09)">
     <use xlink:href="#DejaVuSans-32"/>
     <use xlink:href="#DejaVuSans-30" x="63.623047"/>
     <use xlink:href="#DejaVuSans-32" x="127.246094"/>
     <use xlink:href="#DejaVuSans-31" x="190.869141"/>
    </g>
   </g>
   <g id="text_12">
    <!-- 2023 -->
    <g style="fill: #333333" transform="translate(998.387481 276.129062) scale(0.09 -0.09)">
     <use xlink:href="#DejaVuSans-32"/>
     <use xlink:href="#DejaVuSans-30" x="63.623047"/>
     <use xlink:href="#DejaVuSans-32" x="127.246094"/>
     <use xlink:href="#DejaVuSans-33" x="190.869141"/>
    </g>
   </g>
   <g id="text_13">
    <!-- 2025 -->
    <g style="fill: #333333" transform="translate(1084.008921 276.129062) scale(0.09 -0.09)">
     <use xlink:href="#DejaVuSans-32"/>
     <use xlink:href="#DejaVuSans-30" x="63.623047"/>
     <use xlink:href="#DejaVuSans-32" x="127.246094"/>
     <use xlink:href="#DejaVuSans-35" x="190.869141"/>
    </g>
   </g>
   <g id="text_14">
    <!-- Agile Manifesto Business &amp; -->
    <g style="fill: #333333" transform="translate(7.2 109.398219) scale(0.09 -0.09)">
     <defs>
      <path id="DejaVuSans-41" d="M 2188 4044 
L 1331 1722 
L 3047 1722 
L 2188 4044 
z
M 1831 4666 
L 2547 4666 
L 4325 0 
L 3669 0 
L 3244 1197 
L 1141 1197 
L 716 0 
L 50 0 
L 1831 4666 
z
" transform="scale(0.015625)"/>
      <path id="DejaVuSans-67" d="M 2906 1791 
Q 2906 2416 2648 2759 
Q 2391 3103 1925 3103 
Q 1463 3103 1205 2759 
Q 947 2416 947 1791 
Q 947 1169 1205 825 
Q 1463 481 1925 481 
Q 2391 481 2648 825 
Q 2906 1169 2906 1791 
z
M 3481 434 
Q 3481 -459 3084 -895 
Q 2688 -1331 1869 -1331 
Q 1566 -1331 1297 -1286 
Q 1028 -1241 775 -1147 
L 775 -588 
Q 1028 -725 1275 -790 
Q 1522 -856 1778 -856 
Q 2344 -856 2625 -561 
Q 2906 -266 2906 331 
L 2906 616 
Q 2728 306 2450 153 
Q 2172 0 1784 0 
Q 1141 0 747 490 
Q 353 981 353 1791 
Q 353 2603 747 3093 
Q 1141 3584 1784 3584 
Q 2172 3584 2450 3431 
Q 2728 3278 2906 2969 
L 2906 3500 
L 3481 3500 
L 3481 434 
z
" transform="scale(0.015625)"/>
      <path id="DejaVuSans-69" d="M 603 3500 
L 1178 3500 
L 1178 0 
L 603 0 
L 603 3500 
z
M 603 4863 
L 1178 4863 
L 1178 4134 
L 603 4134 
L 603 4863 
z
" transform="scale(0.015625)"/>
      <path id="DejaVuSans-6c" d="M 603 4863 
L 1178 4863 
L 1178 0 
L 603 0 
L 603 4863 
z
" transform="scale(0.015625)"/>
      <path id="DejaVuSans-65" d="M 3597 1894 
L 3597 1613 
L 953 1613 
Q 991 1019 1311 708 
Q 1631 397 2203 397 
Q 2534 397 2845 478 
Q 3156 559 3463 722 
L 3463 178 
Q 3153 47 2828 -22 
Q 2503 -91 2169 -91 
Q 1331 -91 842 396 
Q 353 884 353 1716 
Q 353 2575 817 3079 
Q 1281 3584 2069 3584 
Q 2775 3584 3186 3129 
Q 3597 2675 3597 1894 
z
M 3022 2063 
Q 3016 2534 2758 2815 
Q 2500 3097 2075 3097 
Q 1594 3097 1305 2825 
Q 1016 2553 972 2059 
L 3022 2063 
z
" transform="scale(0.015625)"/>
      <path id="DejaVuSans-20" transform="scale(0.015625)"/>
      <path id="DejaVuSans-4d" d="M 628 4666 
L 1569 4666 
L 2759 1491 
L 3956 4666 
L 4897 4666 
L 4897 0 
L 4281 0 
L 4281 4097 
L 3078 897 
L 2444 897 
L 1241 4097 
L 1241 0 
L 628 0 
L 628 4666 
z
" transform="scale(0.015625)"/>
      <path id="DejaVuSans-61" d="M 2194 1759 
Q 1497 1759 1228 1600 
Q 959 1441 959 1056 
Q 959 750 1161 570 
Q 1363 391 1709 391 
Q 2188 391 2477 730 
Q 2766 1069 2766 1631 
L 2766 1759 
L 2194 1759 
z
M 3341 1997 
L 3341 0 
L 2766 0 
L 2766 531 
Q 2569 213 2275 61 
Q 1981 -91 1556 -91 
Q 1019 -91 701 211 
Q 384 513 384 1019 
Q 384 1609 779 1909 
Q 1175 2209 1959 2209 
L 2766 2209 
L 2766 2266 
Q 2766 2663 2505 2880 
Q 2244 3097 1772 3097 
Q 1472 3097 1187 3025 
Q 903 2953 641 2809 
L 641 3341 
Q 956 3463 1253 3523 
Q 1550 3584 1831 3584 
Q 2591 3584 2966 3190 
Q 3341 2797 3341 1997 
z
" transform="scale(0.015625)"/>
      <path id="DejaVuSans-6e" d="M 3513 2113 
L 3513 0 
L 2938 0 
L 2938 2094 
Q 2938 2591 2744 2837 
Q 2550 3084 2163 3084 
Q 1697 3084 1428 2787 
Q 1159 2491 1159 1978 
L 1159 0 
L 581 0 
L 581 3500 
L 1159 3500 
L 1159 2956 
Q 1366 3272 1645 3428 
Q 1925 3584 2291 3584 
Q 2894 3584 3203 3211 
Q 3513 2838 3513 2113 
z
" transform="scale(0.015625)"/>
      <path id="DejaVuSans-66" d="M 2375 4863 
L 2375 4384 
L 1825 4384 
Q 1516 4384 1395 4259 
Q 1275 4134 1275 3809 
L 1275 3500 
L 2222 3500 
L 2222 3053 
L 1275 3053 
L 1275 0 
L 697 0 
L 697 3053 
L 147 3053 
L 147 3500 
L 697 3500 
L 697 3744 
Q 697 4328 969 4595 
Q 1241 4863 1831 4863 
L 2375 4863 
z
" transform="scale(0.015625)"/>
      <path id="DejaVuSans-73" d="M 2834 3397 
L 2834 2853 
Q 2591 2978 2328 3040 
Q 2066 3103 1784 3103 
Q 1356 3103 1142 2972 
Q 928 2841 928 2578 
Q 928 2378 1081 2264 
Q 1234 2150 1697 2047 
L 1894 2003 
Q 2506 1872 2764 1633 
Q 3022 1394 3022 966 
Q 3022 478 2636 193 
Q 2250 -91 1575 -91 
Q 1294 -91 989 -36 
Q 684 19 347 128 
L 347 722 
Q 666 556 975 473 
Q 1284 391 1588 391 
Q 1994 391 2212 530 
Q 2431 669 2431 922 
Q 2431 1156 2273 1281 
Q 2116 1406 1581 1522 
L 1381 1569 
Q 847 1681 609 1914 
Q 372 2147 372 2553 
Q 372 3047 722 3315 
Q 1072 3584 1716 3584 
Q 2034 3584 2315 3537 
Q 2597 3491 2834 3397 
z
" transform="scale(0.015625)"/>
      <path id="DejaVuSans-74" d="M 1172 4494 
L 1172 3500 
L 2356 3500 
L 2356 3053 
L 1172 3053 
L 1172 1153 
Q 1172 725 1289 603 
Q 1406 481 1766 481 
L 2356 481 
L 2356 0 
L 1766 0 
Q 1100 0 847 248 
Q 594 497 594 1153 
L 594 3053 
L 172 3053 
L 172 3500 
L 594 3500 
L 594 4494 
L 1172 4494 
z
" transform="scale(0.015625)"/>
      <path id="DejaVuSans-6f" d="M 1959 3097 
Q 1497 3097 1228 2736 
Q 959 2375 959 1747 
Q 959 1119 1226 758 
Q 1494 397 1959 397 
Q 2419 397 2687 759 
Q 2956 1122 2956 1747 
Q 2956 2369 2687 2733 
Q 2419 3097 1959 3097 
z
M 1959 3584 
Q 2709 3584 3137 3096 
Q 3566 2609 3566 1747 
Q 3566 888 3137 398 
Q 2709 -91 1959 -91 
Q 1206 -91 779 398 
Q 353 888 353 1747 
Q 353 2609 779 3096 
Q 1206 3584 1959 3584 
z
" transform="scale(0.015625)"/>
      <path id="DejaVuSans-42" d="M 1259 2228 
L 1259 519 
L 2272 519 
Q 2781 519 3026 730 
Q 3272 941 3272 1375 
Q 3272 1813 3026 2020 
Q 2781 2228 2272 2228 
L 1259 2228 
z
M 1259 4147 
L 1259 2741 
L 2194 2741 
Q 2656 2741 2882 2914 
Q 3109 3088 3109 3444 
Q 3109 3797 2882 3972 
Q 2656 4147 2194 4147 
L 1259 4147 
z
M 628 4666 
L 2241 4666 
Q 2963 4666 3353 4366 
Q 3744 4066 3744 3513 
Q 3744 3084 3544 2831 
Q 3344 2578 2956 2516 
Q 3422 2416 3680 2098 
Q 3938 1781 3938 1306 
Q 3938 681 3513 340 
Q 3088 0 2303 0 
L 628 0 
L 628 4666 
z
" transform="scale(0.015625)"/>
      <path id="DejaVuSans-75" d="M 544 1381 
L 544 3500 
L 1119 3500 
L 1119 1403 
Q 1119 906 1312 657 
Q 1506 409 1894 409 
Q 2359 409 2629 706 
Q 2900 1003 2900 1516 
L 2900 3500 
L 3475 3500 
L 3475 0 
L 2900 0 
L 2900 538 
Q 2691 219 2414 64 
Q 2138 -91 1772 -91 
Q 1169 -91 856 284 
Q 544 659 544 1381 
z
M 1991 3584 
L 1991 3584 
z
" transform="scale(0.015625)"/>
      <path id="DejaVuSans-26" d="M 1556 2509 
Q 1272 2256 1139 2004 
Q 1006 1753 1006 1478 
Q 1006 1022 1337 719 
Q 1669 416 2169 416 
Q 2466 416 2725 514 
Q 2984 613 3213 813 
L 1556 2509 
z
M 1997 2859 
L 3584 1234 
Q 3769 1513 3872 1830 
Q 3975 2147 3994 2503 
L 4575 2503 
Q 4538 2091 4375 1687 
Q 4213 1284 3922 891 
L 4794 0 
L 4006 0 
L 3559 459 
Q 3234 181 2878 45 
Q 2522 -91 2113 -91 
Q 1359 -91 881 339 
Q 403 769 403 1441 
Q 403 1841 612 2192 
Q 822 2544 1241 2853 
Q 1091 3050 1012 3245 
Q 934 3441 934 3628 
Q 934 4134 1281 4442 
Q 1628 4750 2203 4750 
Q 2463 4750 2720 4694 
Q 2978 4638 3244 4525 
L 3244 3956 
Q 2972 4103 2725 4179 
Q 2478 4256 2266 4256 
Q 1938 4256 1733 4082 
Q 1528 3909 1528 3634 
Q 1528 3475 1620 3314 
Q 1713 3153 1997 2859 
z
" transform="scale(0.015625)"/>
     </defs>
     <use xlink:href="#DejaVuSans-41"/>
     <use xlink:href="#DejaVuSans-67" x="68.408203"/>
     <use xlink:href="#DejaVuSans-69" x="131.884766"/>
     <use xlink:href="#DejaVuSans-6c" x="159.667969"/>
     <use xlink:href="#DejaVuSans-65" x="187.451172"/>
     <use xlink:href="#DejaVuSans-20" x="248.974609"/>
     <use xlink:href="#DejaVuSans-4d" x="280.761719"/>
     <use xlink:href="#DejaVuSans-61" x="367.041016"/>
     <use xlink:href="#DejaVuSans-6e" x="428.320312"/>
     <use xlink:href="#DejaVuSans-69" x="491.699219"/>
     <use xlink:href="#DejaVuSans-66" x="519.482422"/>
     <use xlink:href="#DejaVuSans-65" x="554.6875"/>
     <use xlink:href="#DejaVuSans-73" x="616.210938"/>
     <use xlink:href="#DejaVuSans-74" x="668.310547"/>
     <use xlink:href="#DejaVuSans-6f" x="707.519531"/>
     <use xlink:href="#DejaVuSans-20" x="768.701172"/>
     <use xlink:href="#DejaVuSans-42" x="800.488281"/>
     <use xlink:href="#DejaVuSans-75" x="869.091797"/>
     <use xlink:href="#DejaVuSans-73" x="932.470703"/>
     <use xlink:href="#DejaVuSans-69" x="984.570312"/>
     <use xlink:href="#DejaVuSans-6e" x="1012.353516"/>
     <use xlink:href="#DejaVuSans-65" x="1075.732422"/>
     <use xlink:href="#DejaVuSans-73" x="1137.255859"/>
     <use xlink:href="#DejaVuSans-73" x="1189.355469"/>
     <use xlink:href="#DejaVuSans-20" x="1241.455078"/>
     <use xlink:href="#DejaVuSans-26" x="1273.242188"/>
    </g>
    <!-- dev closer -->
    <g style="fill: #333333" transform="translate(44.843906 119.47625) scale(0.09 -0.09)">
     <defs>
      <path id="DejaVuSans-64" d="M 2906 2969 
L 2906 4863 
L 3481 4863 
L 3481 0 
L 2906 0 
L 2906 525 
Q 2725 213 2448 61 
Q 2172 -91 1784 -91 
Q 1150 -91 751 415 
Q 353 922 353 1747 
Q 353 2572 751 3078 
Q 1150 3584 1784 3584 
Q 2172 3584 2448 3432 
Q 2725 3281 2906 2969 
z
M 947 1747 
Q 947 1113 1208 752 
Q 1469 391 1925 391 
Q 2381 391 2643 752 
Q 2906 1113 2906 1747 
Q 2906 2381 2643 2742 
Q 2381 3103 1925 3103 
Q 1469 3103 1208 2742 
Q 947 2381 947 1747 
z
" transform="scale(0.015625)"/>
      <path id="DejaVuSans-76" d="M 191 3500 
L 800 3500 
L 1894 563 
L 2988 3500 
L 3597 3500 
L 2284 0 
L 1503 0 
L 191 3500 
z
" transform="scale(0.015625)"/>
      <path id="DejaVuSans-63" d="M 3122 3366 
L 3122 2828 
Q 2878 2963 2633 3030 
Q 2388 3097 2138 3097 
Q 1578 3097 1268 2742 
Q 959 2388 959 1747 
Q 959 1106 1268 751 
Q 1578 397 2138 397 
Q 2388 397 2633 464 
Q 2878 531 3122 666 
L 3122 134 
Q 2881 22 2623 -34 
Q 2366 -91 2075 -91 
Q 1284 -91 818 406 
Q 353 903 353 1747 
Q 353 2603 823 3093 
Q 1294 3584 2113 3584 
Q 2378 3584 2631 3529 
Q 2884 3475 3122 3366 
z
" transform="scale(0.015625)"/>
      <path id="DejaVuSans-72" d="M 2631 2963 
Q 2534 3019 2420 3045 
Q 2306 3072 2169 3072 
Q 1681 3072 1420 2755 
Q 1159 2438 1159 1844 
L 1159 0 
L 581 0 
L 581 3500 
L 1159 3500 
L 1159 2956 
Q 1341 3275 1631 3429 
Q 1922 3584 2338 3584 
Q 2397 3584 2469 3576 
Q 2541 3569 2628 3553 
L 2631 2963 
z
" transform="scale(0.015625)"/>
     </defs>
     <use xlink:href="#DejaVuSans-64"/>
     <use xlink:href="#DejaVuSans-65" x="63.476562"/>
     <use xlink:href="#DejaVuSans-76" x="125"/>
     <use xlink:href="#DejaVuSans-20" x="184.179688"/>
     <use xlink:href="#DejaVuSans-63" x="215.966797"/>
     <use xlink:href="#DejaVuSans-6c" x="270.947266"/>
     <use xlink:href="#DejaVuSans-6f" x="298.730469"/>
     <use xlink:href="#DejaVuSans-73" x="359.912109"/>
     <use xlink:href="#DejaVuSans-65" x="412.011719"/>
     <use xlink:href="#DejaVuSans-72" x="473.535156"/>
    </g>
   </g>
   <g id="text_15">
    <!-- XP &amp; Continuous -->
    <g style="fill: #333333" transform="translate(201.666396 348.846563) scale(0.09 -0.09)">
     <defs>
      <path id="DejaVuSans-58" d="M 403 4666 
L 1081 4666 
L 2241 2931 
L 3406 4666 
L 4084 4666 
L 2584 2425 
L 4184 0 
L 3506 0 
L 2194 1984 
L 872 0 
L 191 0 
L 1856 2491 
L 403 4666 
z
" transform="scale(0.015625)"/>
      <path id="DejaVuSans-50" d="M 1259 4147 
L 1259 2394 
L 2053 2394 
Q 2494 2394 2734 2622 
Q 2975 2850 2975 3272 
Q 2975 3691 2734 3919 
Q 2494 4147 2053 4147 
L 1259 4147 
z
M 628 4666 
L 2053 4666 
Q 2838 4666 3239 4311 
Q 3641 3956 3641 3272 
Q 3641 2581 3239 2228 
Q 2838 1875 2053 1875 
L 1259 1875 
L 1259 0 
L 628 0 
L 628 4666 
z
" transform="scale(0.015625)"/>
      <path id="DejaVuSans-43" d="M 4122 4306 
L 4122 3641 
Q 3803 3938 3442 4084 
Q 3081 4231 2675 4231 
Q 1875 4231 1450 3742 
Q 1025 3253 1025 2328 
Q 1025 1406 1450 917 
Q 1875 428 2675 428 
Q 3081 428 3442 575 
Q 3803 722 4122 1019 
L 4122 359 
Q 3791 134 3420 21 
Q 3050 -91 2638 -91 
Q 1578 -91 968 557 
Q 359 1206 359 2328 
Q 359 3453 968 4101 
Q 1578 4750 2638 4750 
Q 3056 4750 3426 4639 
Q 3797 4528 4122 4306 
z
" transform="scale(0.015625)"/>
     </defs>
     <use xlink:href="#DejaVuSans-58"/>
     <use xlink:href="#DejaVuSans-50" x="68.505859"/>
     <use xlink:href="#DejaVuSans-20" x="128.808594"/>
     <use xlink:href="#DejaVuSans-26" x="160.595703"/>
     <use xlink:href="#DejaVuSans-20" x="238.574219"/>
     <use xlink:href="#DejaVuSans-43" x="270.361328"/>
     <use xlink:href="#DejaVuSans-6f" x="340.185547"/>
     <use xlink:href="#DejaVuSans-6e" x="401.367188"/>
     <use xlink:href="#DejaVuSans-74" x="464.746094"/>
     <use xlink:href="#DejaVuSans-69" x="503.955078"/>
     <use xlink:href="#DejaVuSans-6e" x="531.738281"/>
     <use xlink:href="#DejaVuSans-75" x="595.117188"/>
     <use xlink:href="#DejaVuSans-6f" x="658.496094"/>
     <use xlink:href="#DejaVuSans-75" x="719.677734"/>
     <use xlink:href="#DejaVuSans-73" x="783.056641"/>
    </g>
    <!-- Integration become -->
    <g style="fill: #333333" transform="translate(195.014833 358.924594) scale(0.09 -0.09)">
     <defs>
      <path id="DejaVuSans-49" d="M 628 4666 
L 1259 4666 
L 1259 0 
L 628 0 
L 628 4666 
z
" transform="scale(0.015625)"/>
      <path id="DejaVuSans-62" d="M 3116 1747 
Q 3116 2381 2855 2742 
Q 2594 3103 2138 3103 
Q 1681 3103 1420 2742 
Q 1159 2381 1159 1747 
Q 1159 1113 1420 752 
Q 1681 391 2138 391 
Q 2594 391 2855 752 
Q 3116 1113 3116 1747 
z
M 1159 2969 
Q 1341 3281 1617 3432 
Q 1894 3584 2278 3584 
Q 2916 3584 3314 3078 
Q 3713 2572 3713 1747 
Q 3713 922 3314 415 
Q 2916 -91 2278 -91 
Q 1894 -91 1617 61 
Q 1341 213 1159 525 
L 1159 0 
L 581 0 
L 581 4863 
L 1159 4863 
L 1159 2969 
z
" transform="scale(0.015625)"/>
      <path id="DejaVuSans-6d" d="M 3328 2828 
Q 3544 3216 3844 3400 
Q 4144 3584 4550 3584 
Q 5097 3584 5394 3201 
Q 5691 2819 5691 2113 
L 5691 0 
L 5113 0 
L 5113 2094 
Q 5113 2597 4934 2840 
Q 4756 3084 4391 3084 
Q 3944 3084 3684 2787 
Q 3425 2491 3425 1978 
L 3425 0 
L 2847 0 
L 2847 2094 
Q 2847 2600 2669 2842 
Q 2491 3084 2119 3084 
Q 1678 3084 1418 2786 
Q 1159 2488 1159 1978 
L 1159 0 
L 581 0 
L 581 3500 
L 1159 3500 
L 1159 2956 
Q 1356 3278 1631 3431 
Q 1906 3584 2284 3584 
Q 2666 3584 2933 3390 
Q 3200 3197 3328 2828 
z
" transform="scale(0.015625)"/>
     </defs>
     <use xlink:href="#DejaVuSans-49"/>
     <use xlink:href="#DejaVuSans-6e" x="29.492188"/>
     <use xlink:href="#DejaVuSans-74" x="92.871094"/>
     <use xlink:href="#DejaVuSans-65" x="132.080078"/>
     <use xlink:href="#DejaVuSans-67" x="193.603516"/>
     <use xlink:href="#DejaVuSans-72" x="257.080078"/>
     <use xlink:href="#DejaVuSans-61" x="298.193359"/>
     <use xlink:href="#DejaVuSans-74" x="359.472656"/>
     <use xlink:href="#DejaVuSans-69" x="398.681641"/>
     <use xlink:href="#DejaVuSans-6f" x="426.464844"/>
     <use xlink:href="#DejaVuSans-6e" x="487.646484"/>
     <use xlink:href="#DejaVuSans-20" x="551.025391"/>
     <use xlink:href="#DejaVuSans-62" x="582.8125"/>
     <use xlink:href="#DejaVuSans-65" x="646.289062"/>
     <use xlink:href="#DejaVuSans-63" x="707.8125"/>
     <use xlink:href="#DejaVuSans-6f" x="762.792969"/>
     <use xlink:href="#DejaVuSans-6d" x="823.974609"/>
     <use xlink:href="#DejaVuSans-65" x="921.386719"/>
    </g>
    <!-- mainstream -->
    <g style="fill: #333333" transform="translate(212.237177 369.002625) scale(0.09 -0.09)">
     <use xlink:href="#DejaVuSans-6d"/>
     <use xlink:href="#DejaVuSans-61" x="97.412109"/>
     <use xlink:href="#DejaVuSans-69" x="158.691406"/>
     <use xlink:href="#DejaVuSans-6e" x="186.474609"/>
     <use xlink:href="#DejaVuSans-73" x="249.853516"/>
     <use xlink:href="#DejaVuSans-74" x="301.953125"/>
     <use xlink:href="#DejaVuSans-72" x="341.162109"/>
     <use xlink:href="#DejaVuSans-65" x="380.025391"/>
     <use xlink:href="#DejaVuSans-61" x="441.548828"/>
     <use xlink:href="#DejaVuSans-6d" x="502.828125"/>
    </g>
   </g>
   <g id="text_16">
    <!-- Velocity: “10+ -->
    <g style="fill: #333333" transform="translate(391.230538 59.248219) scale(0.09 -0.09)">
     <defs>
      <path id="DejaVuSans-56" d="M 1831 0 
L 50 4666 
L 709 4666 
L 2188 738 
L 3669 4666 
L 4325 4666 
L 2547 0 
L 1831 0 
z
" transform="scale(0.015625)"/>
      <path id="DejaVuSans-79" d="M 2059 -325 
Q 1816 -950 1584 -1140 
Q 1353 -1331 966 -1331 
L 506 -1331 
L 506 -850 
L 844 -850 
Q 1081 -850 1212 -737 
Q 1344 -625 1503 -206 
L 1606 56 
L 191 3500 
L 800 3500 
L 1894 763 
L 2988 3500 
L 3597 3500 
L 2059 -325 
z
" transform="scale(0.015625)"/>
      <path id="DejaVuSans-3a" d="M 750 794 
L 1409 794 
L 1409 0 
L 750 0 
L 750 794 
z
M 750 3309 
L 1409 3309 
L 1409 2516 
L 750 2516 
L 750 3309 
z
" transform="scale(0.015625)"/>
      <path id="DejaVuSans-201c" d="M 1203 3128 
L 544 3128 
L 544 3669 
L 1056 4666 
L 1459 4666 
L 1203 3669 
L 1203 3128 
z
M 2484 3128 
L 1825 3128 
L 1825 3669 
L 2338 4666 
L 2741 4666 
L 2484 3669 
L 2484 3128 
z
" transform="scale(0.015625)"/>
      <path id="DejaVuSans-2b" d="M 2944 4013 
L 2944 2272 
L 4684 2272 
L 4684 1741 
L 2944 1741 
L 2944 0 
L 2419 0 
L 2419 1741 
L 678 1741 
L 678 2272 
L 2419 2272 
L 2419 4013 
L 2944 4013 
z
" transform="scale(0.015625)"/>
     </defs>
     <use xlink:href="#DejaVuSans-56"/>
     <use xlink:href="#DejaVuSans-65" x="60.658203"/>
     <use xlink:href="#DejaVuSans-6c" x="122.181641"/>
     <use xlink:href="#DejaVuSans-6f" x="149.964844"/>
     <use xlink:href="#DejaVuSans-63" x="211.146484"/>
     <use xlink:href="#DejaVuSans-69" x="266.126953"/>
     <use xlink:href="#DejaVuSans-74" x="293.910156"/>
     <use xlink:href="#DejaVuSans-79" x="333.119141"/>
     <use xlink:href="#DejaVuSans-3a" x="385.048828"/>
     <use xlink:href="#DejaVuSans-20" x="418.740234"/>
     <use xlink:href="#DejaVuSans-201c" x="450.527344"/>
     <use xlink:href="#DejaVuSans-31" x="502.333984"/>
     <use xlink:href="#DejaVuSans-30" x="565.957031"/>
     <use xlink:href="#DejaVuSans-2b" x="629.580078"/>
    </g>
    <!-- deploys/day” -->
    <g style="fill: #333333" transform="translate(393.713976 69.32625) scale(0.09 -0.09)">
     <defs>
      <path id="DejaVuSans-70" d="M 1159 525 
L 1159 -1331 
L 581 -1331 
L 581 3500 
L 1159 3500 
L 1159 2969 
Q 1341 3281 1617 3432 
Q 1894 3584 2278 3584 
Q 2916 3584 3314 3078 
Q 3713 2572 3713 1747 
Q 3713 922 3314 415 
Q 2916 -91 2278 -91 
Q 1894 -91 1617 61 
Q 1341 213 1159 525 
z
M 3116 1747 
Q 3116 2381 2855 2742 
Q 2594 3103 2138 3103 
Q 1681 3103 1420 2742 
Q 1159 2381 1159 1747 
Q 1159 1113 1420 752 
Q 1681 391 2138 391 
Q 2594 391 2855 752 
Q 3116 1113 3116 1747 
z
" transform="scale(0.015625)"/>
      <path id="DejaVuSans-2f" d="M 1625 4666 
L 2156 4666 
L 531 -594 
L 0 -594 
L 1625 4666 
z
" transform="scale(0.015625)"/>
      <path id="DejaVuSans-201d" d="M 800 4666 
L 1459 4666 
L 1459 4128 
L 947 3128 
L 544 3128 
L 800 4128 
L 800 4666 
z
M 2081 4666 
L 2741 4666 
L 2741 4128 
L 2228 3128 
L 1825 3128 
L 2081 4128 
L 2081 4666 
z
" transform="scale(0.015625)"/>
     </defs>
     <use xlink:href="#DejaVuSans-64"/>
     <use xlink:href="#DejaVuSans-65" x="63.476562"/>
     <use xlink:href="#DejaVuSans-70" x="125"/>
     <use xlink:href="#DejaVuSans-6c" x="188.476562"/>
     <use xlink:href="#DejaVuSans-6f" x="216.259766"/>
     <use xlink:href="#DejaVuSans-79" x="277.441406"/>
     <use xlink:href="#DejaVuSans-73" x="336.621094"/>
     <use xlink:href="#DejaVuSans-2f" x="388.720703"/>
     <use xlink:href="#DejaVuSans-64" x="422.412109"/>
     <use xlink:href="#DejaVuSans-61" x="485.888672"/>
     <use xlink:href="#DejaVuSans-79" x="547.167969"/>
     <use xlink:href="#DejaVuSans-201d" x="606.347656"/>
    </g>
   </g>
   <g id="text_17">
    <!-- Term “DevOps” &amp; first -->
    <g style="fill: #333333" transform="translate(395.076055 398.996562) scale(0.09 -0.09)">
     <defs>
      <path id="DejaVuSans-54" d="M -19 4666 
L 3928 4666 
L 3928 4134 
L 2272 4134 
L 2272 0 
L 1638 0 
L 1638 4134 
L -19 4134 
L -19 4666 
z
" transform="scale(0.015625)"/>
      <path id="DejaVuSans-44" d="M 1259 4147 
L 1259 519 
L 2022 519 
Q 2988 519 3436 956 
Q 3884 1394 3884 2338 
Q 3884 3275 3436 3711 
Q 2988 4147 2022 4147 
L 1259 4147 
z
M 628 4666 
L 1925 4666 
Q 3281 4666 3915 4102 
Q 4550 3538 4550 2338 
Q 4550 1131 3912 565 
Q 3275 0 1925 0 
L 628 0 
L 628 4666 
z
" transform="scale(0.015625)"/>
      <path id="DejaVuSans-4f" d="M 2522 4238 
Q 1834 4238 1429 3725 
Q 1025 3213 1025 2328 
Q 1025 1447 1429 934 
Q 1834 422 2522 422 
Q 3209 422 3611 934 
Q 4013 1447 4013 2328 
Q 4013 3213 3611 3725 
Q 3209 4238 2522 4238 
z
M 2522 4750 
Q 3503 4750 4090 4092 
Q 4678 3434 4678 2328 
Q 4678 1225 4090 567 
Q 3503 -91 2522 -91 
Q 1538 -91 948 565 
Q 359 1222 359 2328 
Q 359 3434 948 4092 
Q 1538 4750 2522 4750 
z
" transform="scale(0.015625)"/>
     </defs>
     <use xlink:href="#DejaVuSans-54"/>
     <use xlink:href="#DejaVuSans-65" x="44.083984"/>
     <use xlink:href="#DejaVuSans-72" x="105.607422"/>
     <use xlink:href="#DejaVuSans-6d" x="144.970703"/>
     <use xlink:href="#DejaVuSans-20" x="242.382812"/>
     <use xlink:href="#DejaVuSans-201c" x="274.169922"/>
     <use xlink:href="#DejaVuSans-44" x="322.851562"/>
     <use xlink:href="#DejaVuSans-65" x="399.853516"/>
     <use xlink:href="#DejaVuSans-76" x="461.376953"/>
     <use xlink:href="#DejaVuSans-4f" x="520.556641"/>
     <use xlink:href="#DejaVuSans-70" x="599.267578"/>
     <use xlink:href="#DejaVuSans-73" x="662.744141"/>
     <use xlink:href="#DejaVuSans-201d" x="714.84375"/>
     <use xlink:href="#DejaVuSans-20" x="766.650391"/>
     <use xlink:href="#DejaVuSans-26" x="798.4375"/>
     <use xlink:href="#DejaVuSans-20" x="876.416016"/>
     <use xlink:href="#DejaVuSans-66" x="908.203125"/>
     <use xlink:href="#DejaVuSans-69" x="943.408203"/>
     <use xlink:href="#DejaVuSans-72" x="971.191406"/>
     <use xlink:href="#DejaVuSans-73" x="1012.304688"/>
     <use xlink:href="#DejaVuSans-74" x="1064.404297"/>
    </g>
    <!-- DevOpsDays (Ghent) -->
    <g style="fill: #333333" transform="translate(397.202305 409.074594) scale(0.09 -0.09)">
     <defs>
      <path id="DejaVuSans-28" d="M 1984 4856 
Q 1566 4138 1362 3434 
Q 1159 2731 1159 2009 
Q 1159 1288 1364 580 
Q 1569 -128 1984 -844 
L 1484 -844 
Q 1016 -109 783 600 
Q 550 1309 550 2009 
Q 550 2706 781 3412 
Q 1013 4119 1484 4856 
L 1984 4856 
z
" transform="scale(0.015625)"/>
      <path id="DejaVuSans-47" d="M 3809 666 
L 3809 1919 
L 2778 1919 
L 2778 2438 
L 4434 2438 
L 4434 434 
Q 4069 175 3628 42 
Q 3188 -91 2688 -91 
Q 1594 -91 976 548 
Q 359 1188 359 2328 
Q 359 3472 976 4111 
Q 1594 4750 2688 4750 
Q 3144 4750 3555 4637 
Q 3966 4525 4313 4306 
L 4313 3634 
Q 3963 3931 3569 4081 
Q 3175 4231 2741 4231 
Q 1884 4231 1454 3753 
Q 1025 3275 1025 2328 
Q 1025 1384 1454 906 
Q 1884 428 2741 428 
Q 3075 428 3337 486 
Q 3600 544 3809 666 
z
" transform="scale(0.015625)"/>
      <path id="DejaVuSans-68" d="M 3513 2113 
L 3513 0 
L 2938 0 
L 2938 2094 
Q 2938 2591 2744 2837 
Q 2550 3084 2163 3084 
Q 1697 3084 1428 2787 
Q 1159 2491 1159 1978 
L 1159 0 
L 581 0 
L 581 4863 
L 1159 4863 
L 1159 2956 
Q 1366 3272 1645 3428 
Q 1925 3584 2291 3584 
Q 2894 3584 3203 3211 
Q 3513 2838 3513 2113 
z
" transform="scale(0.015625)"/>
      <path id="DejaVuSans-29" d="M 513 4856 
L 1013 4856 
Q 1481 4119 1714 3412 
Q 1947 2706 1947 2009 
Q 1947 1309 1714 600 
Q 1481 -109 1013 -844 
L 513 -844 
Q 928 -128 1133 580 
Q 1338 1288 1338 2009 
Q 1338 2731 1133 3434 
Q 928 4138 513 4856 
z
" transform="scale(0.015625)"/>
     </defs>
     <use xlink:href="#DejaVuSans-44"/>
     <use xlink:href="#DejaVuSans-65" x="77.001953"/>
     <use xlink:href="#DejaVuSans-76" x="138.525391"/>
     <use xlink:href="#DejaVuSans-4f" x="197.705078"/>
     <use xlink:href="#DejaVuSans-70" x="276.416016"/>
     <use xlink:href="#DejaVuSans-73" x="339.892578"/>
     <use xlink:href="#DejaVuSans-44" x="391.992188"/>
     <use xlink:href="#DejaVuSans-61" x="468.994141"/>
     <use xlink:href="#DejaVuSans-79" x="530.273438"/>
     <use xlink:href="#DejaVuSans-73" x="589.453125"/>
     <use xlink:href="#DejaVuSans-20" x="641.552734"/>
     <use xlink:href="#DejaVuSans-28" x="673.339844"/>
     <use xlink:href="#DejaVuSans-47" x="712.353516"/>
     <use xlink:href="#DejaVuSans-68" x="789.84375"/>
     <use xlink:href="#DejaVuSans-65" x="853.222656"/>
     <use xlink:href="#DejaVuSans-6e" x="914.746094"/>
     <use xlink:href="#DejaVuSans-74" x="978.125"/>
     <use xlink:href="#DejaVuSans-29" x="1017.333984"/>
    </g>
   </g>
   <g id="text_18">
    <!-- CAMS framing: Culture • -->
    <g style="fill: #333333" transform="translate(406.530343 99.320187) scale(0.09 -0.09)">
     <defs>
      <path id="DejaVuSans-53" d="M 3425 4513 
L 3425 3897 
Q 3066 4069 2747 4153 
Q 2428 4238 2131 4238 
Q 1616 4238 1336 4038 
Q 1056 3838 1056 3469 
Q 1056 3159 1242 3001 
Q 1428 2844 1947 2747 
L 2328 2669 
Q 3034 2534 3370 2195 
Q 3706 1856 3706 1288 
Q 3706 609 3251 259 
Q 2797 -91 1919 -91 
Q 1588 -91 1214 -16 
Q 841 59 441 206 
L 441 856 
Q 825 641 1194 531 
Q 1563 422 1919 422 
Q 2459 422 2753 634 
Q 3047 847 3047 1241 
Q 3047 1584 2836 1778 
Q 2625 1972 2144 2069 
L 1759 2144 
Q 1053 2284 737 2584 
Q 422 2884 422 3419 
Q 422 4038 858 4394 
Q 1294 4750 2059 4750 
Q 2388 4750 2728 4690 
Q 3069 4631 3425 4513 
z
" transform="scale(0.015625)"/>
      <path id="DejaVuSans-2022" d="M 959 2381 
Q 959 2769 1229 3036 
Q 1500 3303 1894 3303 
Q 2281 3303 2548 3036 
Q 2816 2769 2816 2381 
Q 2816 1991 2547 1722 
Q 2278 1453 1888 1453 
Q 1497 1453 1228 1722 
Q 959 1991 959 2381 
z
" transform="scale(0.015625)"/>
     </defs>
     <use xlink:href="#DejaVuSans-43"/>
     <use xlink:href="#DejaVuSans-41" x="69.824219"/>
     <use xlink:href="#DejaVuSans-4d" x="138.232422"/>
     <use xlink:href="#DejaVuSans-53" x="224.511719"/>
     <use xlink:href="#DejaVuSans-20" x="287.988281"/>
     <use xlink:href="#DejaVuSans-66" x="319.775391"/>
     <use xlink:href="#DejaVuSans-72" x="354.980469"/>
     <use xlink:href="#DejaVuSans-61" x="396.09375"/>
     <use xlink:href="#DejaVuSans-6d" x="457.373047"/>
     <use xlink:href="#DejaVuSans-69" x="554.785156"/>
     <use xlink:href="#DejaVuSans-6e" x="582.568359"/>
     <use xlink:href="#DejaVuSans-67" x="645.947266"/>
     <use xlink:href="#DejaVuSans-3a" x="709.423828"/>
     <use xlink:href="#DejaVuSans-20" x="743.115234"/>
     <use xlink:href="#DejaVuSans-43" x="774.902344"/>
     <use xlink:href="#DejaVuSans-75" x="844.726562"/>
     <use xlink:href="#DejaVuSans-6c" x="908.105469"/>
     <use xlink:href="#DejaVuSans-74" x="935.888672"/>
     <use xlink:href="#DejaVuSans-75" x="975.097656"/>
     <use xlink:href="#DejaVuSans-72" x="1038.476562"/>
     <use xlink:href="#DejaVuSans-65" x="1077.339844"/>
     <use xlink:href="#DejaVuSans-20" x="1138.863281"/>
     <use xlink:href="#DejaVuSans-2022" x="1170.650391"/>
    </g>
    <!-- Automation • Measurement • -->
    <g style="fill: #333333" transform="translate(395.164327 109.398219) scale(0.09 -0.09)">
     <use xlink:href="#DejaVuSans-41"/>
     <use xlink:href="#DejaVuSans-75" x="68.408203"/>
     <use xlink:href="#DejaVuSans-74" x="131.787109"/>
     <use xlink:href="#DejaVuSans-6f" x="170.996094"/>
     <use xlink:href="#DejaVuSans-6d" x="232.177734"/>
     <use xlink:href="#DejaVuSans-61" x="329.589844"/>
     <use xlink:href="#DejaVuSans-74" x="390.869141"/>
     <use xlink:href="#DejaVuSans-69" x="430.078125"/>
     <use xlink:href="#DejaVuSans-6f" x="457.861328"/>
     <use xlink:href="#DejaVuSans-6e" x="519.042969"/>
     <use xlink:href="#DejaVuSans-20" x="582.421875"/>
     <use xlink:href="#DejaVuSans-2022" x="614.208984"/>
     <use xlink:href="#DejaVuSans-20" x="673.193359"/>
     <use xlink:href="#DejaVuSans-4d" x="704.980469"/>
     <use xlink:href="#DejaVuSans-65" x="791.259766"/>
     <use xlink:href="#DejaVuSans-61" x="852.783203"/>
     <use xlink:href="#DejaVuSans-73" x="914.0625"/>
     <use xlink:href="#DejaVuSans-75" x="966.162109"/>
     <use xlink:href="#DejaVuSans-72" x="1029.541016"/>
     <use xlink:href="#DejaVuSans-65" x="1068.404297"/>
     <use xlink:href="#DejaVuSans-6d" x="1129.927734"/>
     <use xlink:href="#DejaVuSans-65" x="1227.339844"/>
     <use xlink:href="#DejaVuSans-6e" x="1288.863281"/>
     <use xlink:href="#DejaVuSans-74" x="1352.242188"/>
     <use xlink:href="#DejaVuSans-20" x="1391.451172"/>
     <use xlink:href="#DejaVuSans-2022" x="1423.238281"/>
    </g>
    <!-- Sharing -->
    <g style="fill: #333333" transform="translate(444.587687 119.47625) scale(0.09 -0.09)">
     <use xlink:href="#DejaVuSans-53"/>
     <use xlink:href="#DejaVuSans-68" x="63.476562"/>
     <use xlink:href="#DejaVuSans-61" x="126.855469"/>
     <use xlink:href="#DejaVuSans-72" x="188.134766"/>
     <use xlink:href="#DejaVuSans-69" x="229.248047"/>
     <use xlink:href="#DejaVuSans-6e" x="257.03125"/>
     <use xlink:href="#DejaVuSans-67" x="320.410156"/>
    </g>
   </g>
   <g id="text_19">
    <!-- CALMS adds Lean -->
    <g style="fill: #333333" transform="translate(498.971904 348.846563) scale(0.09 -0.09)">
     <defs>
      <path id="DejaVuSans-4c" d="M 628 4666 
L 1259 4666 
L 1259 531 
L 3531 531 
L 3531 0 
L 628 0 
L 628 4666 
z
" transform="scale(0.015625)"/>
     </defs>
     <use xlink:href="#DejaVuSans-43"/>
     <use xlink:href="#DejaVuSans-41" x="69.824219"/>
     <use xlink:href="#DejaVuSans-4c" x="138.232422"/>
     <use xlink:href="#DejaVuSans-4d" x="193.945312"/>
     <use xlink:href="#DejaVuSans-53" x="280.224609"/>
     <use xlink:href="#DejaVuSans-20" x="343.701172"/>
     <use xlink:href="#DejaVuSans-61" x="375.488281"/>
     <use xlink:href="#DejaVuSans-64" x="436.767578"/>
     <use xlink:href="#DejaVuSans-64" x="500.244141"/>
     <use xlink:href="#DejaVuSans-73" x="563.720703"/>
     <use xlink:href="#DejaVuSans-20" x="615.820312"/>
     <use xlink:href="#DejaVuSans-4c" x="647.607422"/>
     <use xlink:href="#DejaVuSans-65" x="701.570312"/>
     <use xlink:href="#DejaVuSans-61" x="763.09375"/>
     <use xlink:href="#DejaVuSans-6e" x="824.373047"/>
    </g>
   </g>
   <g id="text_20">
    <!-- Config mgmt maturity -->
    <g style="fill: #333333" transform="translate(574.572407 59.248219) scale(0.09 -0.09)">
     <use xlink:href="#DejaVuSans-43"/>
     <use xlink:href="#DejaVuSans-6f" x="69.824219"/>
     <use xlink:href="#DejaVuSans-6e" x="131.005859"/>
     <use xlink:href="#DejaVuSans-66" x="194.384766"/>
     <use xlink:href="#DejaVuSans-69" x="229.589844"/>
     <use xlink:href="#DejaVuSans-67" x="257.373047"/>
     <use xlink:href="#DejaVuSans-20" x="320.849609"/>
     <use xlink:href="#DejaVuSans-6d" x="352.636719"/>
     <use xlink:href="#DejaVuSans-67" x="450.048828"/>
     <use xlink:href="#DejaVuSans-6d" x="513.525391"/>
     <use xlink:href="#DejaVuSans-74" x="610.9375"/>
     <use xlink:href="#DejaVuSans-20" x="650.146484"/>
     <use xlink:href="#DejaVuSans-6d" x="681.933594"/>
     <use xlink:href="#DejaVuSans-61" x="779.345703"/>
     <use xlink:href="#DejaVuSans-74" x="840.625"/>
     <use xlink:href="#DejaVuSans-75" x="879.833984"/>
     <use xlink:href="#DejaVuSans-72" x="943.212891"/>
     <use xlink:href="#DejaVuSans-69" x="984.326172"/>
     <use xlink:href="#DejaVuSans-74" x="1012.109375"/>
     <use xlink:href="#DejaVuSans-79" x="1051.318359"/>
    </g>
    <!-- (CFEngine/Puppet/Chef) -->
    <g style="fill: #333333" transform="translate(570.766391 69.32625) scale(0.09 -0.09)">
     <defs>
      <path id="DejaVuSans-46" d="M 628 4666 
L 3309 4666 
L 3309 4134 
L 1259 4134 
L 1259 2759 
L 3109 2759 
L 3109 2228 
L 1259 2228 
L 1259 0 
L 628 0 
L 628 4666 
z
" transform="scale(0.015625)"/>
      <path id="DejaVuSans-45" d="M 628 4666 
L 3578 4666 
L 3578 4134 
L 1259 4134 
L 1259 2753 
L 3481 2753 
L 3481 2222 
L 1259 2222 
L 1259 531 
L 3634 531 
L 3634 0 
L 628 0 
L 628 4666 
z
" transform="scale(0.015625)"/>
     </defs>
     <use xlink:href="#DejaVuSans-28"/>
     <use xlink:href="#DejaVuSans-43" x="39.013672"/>
     <use xlink:href="#DejaVuSans-46" x="108.837891"/>
     <use xlink:href="#DejaVuSans-45" x="166.357422"/>
     <use xlink:href="#DejaVuSans-6e" x="229.541016"/>
     <use xlink:href="#DejaVuSans-67" x="292.919922"/>
     <use xlink:href="#DejaVuSans-69" x="356.396484"/>
     <use xlink:href="#DejaVuSans-6e" x="384.179688"/>
     <use xlink:href="#DejaVuSans-65" x="447.558594"/>
     <use xlink:href="#DejaVuSans-2f" x="509.082031"/>
     <use xlink:href="#DejaVuSans-50" x="542.773438"/>
     <use xlink:href="#DejaVuSans-75" x="601.326172"/>
     <use xlink:href="#DejaVuSans-70" x="664.705078"/>
     <use xlink:href="#DejaVuSans-70" x="728.181641"/>
     <use xlink:href="#DejaVuSans-65" x="791.658203"/>
     <use xlink:href="#DejaVuSans-74" x="853.181641"/>
     <use xlink:href="#DejaVuSans-2f" x="892.390625"/>
     <use xlink:href="#DejaVuSans-43" x="926.082031"/>
     <use xlink:href="#DejaVuSans-68" x="995.90625"/>
     <use xlink:href="#DejaVuSans-65" x="1059.285156"/>
     <use xlink:href="#DejaVuSans-66" x="1120.808594"/>
     <use xlink:href="#DejaVuSans-29" x="1156.013672"/>
    </g>
   </g>
   <g id="text_21">
    <!-- Docker goes mainstream -->
    <g style="fill: #333333" transform="translate(632.411846 398.996562) scale(0.09 -0.09)">
     <defs>
      <path id="DejaVuSans-6b" d="M 581 4863 
L 1159 4863 
L 1159 1991 
L 2875 3500 
L 3609 3500 
L 1753 1863 
L 3688 0 
L 2938 0 
L 1159 1709 
L 1159 0 
L 581 0 
L 581 4863 
z
" transform="scale(0.015625)"/>
     </defs>
     <use xlink:href="#DejaVuSans-44"/>
     <use xlink:href="#DejaVuSans-6f" x="77.001953"/>
     <use xlink:href="#DejaVuSans-63" x="138.183594"/>
     <use xlink:href="#DejaVuSans-6b" x="193.164062"/>
     <use xlink:href="#DejaVuSans-65" x="247.449219"/>
     <use xlink:href="#DejaVuSans-72" x="308.972656"/>
     <use xlink:href="#DejaVuSans-20" x="350.085938"/>
     <use xlink:href="#DejaVuSans-67" x="381.873047"/>
     <use xlink:href="#DejaVuSans-6f" x="445.349609"/>
     <use xlink:href="#DejaVuSans-65" x="506.53125"/>
     <use xlink:href="#DejaVuSans-73" x="568.054688"/>
     <use xlink:href="#DejaVuSans-20" x="620.154297"/>
     <use xlink:href="#DejaVuSans-6d" x="651.941406"/>
     <use xlink:href="#DejaVuSans-61" x="749.353516"/>
     <use xlink:href="#DejaVuSans-69" x="810.632812"/>
     <use xlink:href="#DejaVuSans-6e" x="838.416016"/>
     <use xlink:href="#DejaVuSans-73" x="901.794922"/>
     <use xlink:href="#DejaVuSans-74" x="953.894531"/>
     <use xlink:href="#DejaVuSans-72" x="993.103516"/>
     <use xlink:href="#DejaVuSans-65" x="1031.966797"/>
     <use xlink:href="#DejaVuSans-61" x="1093.490234"/>
     <use xlink:href="#DejaVuSans-6d" x="1154.769531"/>
    </g>
   </g>
   <g id="text_22">
    <!-- IaC standardises -->
    <g style="fill: #333333" transform="translate(694.24491 109.398219) scale(0.09 -0.09)">
     <use xlink:href="#DejaVuSans-49"/>
     <use xlink:href="#DejaVuSans-61" x="29.492188"/>
     <use xlink:href="#DejaVuSans-43" x="90.771484"/>
     <use xlink:href="#DejaVuSans-20" x="160.595703"/>
     <use xlink:href="#DejaVuSans-73" x="192.382812"/>
     <use xlink:href="#DejaVuSans-74" x="244.482422"/>
     <use xlink:href="#DejaVuSans-61" x="283.691406"/>
     <use xlink:href="#DejaVuSans-6e" x="344.970703"/>
     <use xlink:href="#DejaVuSans-64" x="408.349609"/>
     <use xlink:href="#DejaVuSans-61" x="471.826172"/>
     <use xlink:href="#DejaVuSans-72" x="533.105469"/>
     <use xlink:href="#DejaVuSans-64" x="572.46875"/>
     <use xlink:href="#DejaVuSans-69" x="635.945312"/>
     <use xlink:href="#DejaVuSans-73" x="663.728516"/>
     <use xlink:href="#DejaVuSans-65" x="715.828125"/>
     <use xlink:href="#DejaVuSans-73" x="777.351562"/>
    </g>
    <!-- (Terraform/CloudFormation) -->
    <g style="fill: #333333" transform="translate(669.354988 119.47625) scale(0.09 -0.09)">
     <use xlink:href="#DejaVuSans-28"/>
     <use xlink:href="#DejaVuSans-54" x="39.013672"/>
     <use xlink:href="#DejaVuSans-65" x="83.097656"/>
     <use xlink:href="#DejaVuSans-72" x="144.621094"/>
     <use xlink:href="#DejaVuSans-72" x="183.984375"/>
     <use xlink:href="#DejaVuSans-61" x="225.097656"/>
     <use xlink:href="#DejaVuSans-66" x="286.376953"/>
     <use xlink:href="#DejaVuSans-6f" x="321.582031"/>
     <use xlink:href="#DejaVuSans-72" x="382.763672"/>
     <use xlink:href="#DejaVuSans-6d" x="422.126953"/>
     <use xlink:href="#DejaVuSans-2f" x="519.539062"/>
     <use xlink:href="#DejaVuSans-43" x="553.230469"/>
     <use xlink:href="#DejaVuSans-6c" x="623.054688"/>
     <use xlink:href="#DejaVuSans-6f" x="650.837891"/>
     <use xlink:href="#DejaVuSans-75" x="712.019531"/>
     <use xlink:href="#DejaVuSans-64" x="775.398438"/>
     <use xlink:href="#DejaVuSans-46" x="838.875"/>
     <use xlink:href="#DejaVuSans-6f" x="892.769531"/>
     <use xlink:href="#DejaVuSans-72" x="953.951172"/>
     <use xlink:href="#DejaVuSans-6d" x="993.314453"/>
     <use xlink:href="#DejaVuSans-61" x="1090.726562"/>
     <use xlink:href="#DejaVuSans-74" x="1152.005859"/>
     <use xlink:href="#DejaVuSans-69" x="1191.214844"/>
     <use xlink:href="#DejaVuSans-6f" x="1218.998047"/>
     <use xlink:href="#DejaVuSans-6e" x="1280.179688"/>
     <use xlink:href="#DejaVuSans-29" x="1343.558594"/>
    </g>
   </g>
   <g id="text_23">
    <!-- DORA metrics popularised -->
    <g style="fill: #333333" transform="translate(736.662006 348.846563) scale(0.09 -0.09)">
     <defs>
      <path id="DejaVuSans-52" d="M 2841 2188 
Q 3044 2119 3236 1894 
Q 3428 1669 3622 1275 
L 4263 0 
L 3584 0 
L 2988 1197 
Q 2756 1666 2539 1819 
Q 2322 1972 1947 1972 
L 1259 1972 
L 1259 0 
L 628 0 
L 628 4666 
L 2053 4666 
Q 2853 4666 3247 4331 
Q 3641 3997 3641 3322 
Q 3641 2881 3436 2590 
Q 3231 2300 2841 2188 
z
M 1259 4147 
L 1259 2491 
L 2053 2491 
Q 2509 2491 2742 2702 
Q 2975 2913 2975 3322 
Q 2975 3731 2742 3939 
Q 2509 4147 2053 4147 
L 1259 4147 
z
" transform="scale(0.015625)"/>
     </defs>
     <use xlink:href="#DejaVuSans-44"/>
     <use xlink:href="#DejaVuSans-4f" x="77.001953"/>
     <use xlink:href="#DejaVuSans-52" x="155.712891"/>
     <use xlink:href="#DejaVuSans-41" x="221.195312"/>
     <use xlink:href="#DejaVuSans-20" x="289.603516"/>
     <use xlink:href="#DejaVuSans-6d" x="321.390625"/>
     <use xlink:href="#DejaVuSans-65" x="418.802734"/>
     <use xlink:href="#DejaVuSans-74" x="480.326172"/>
     <use xlink:href="#DejaVuSans-72" x="519.535156"/>
     <use xlink:href="#DejaVuSans-69" x="560.648438"/>
     <use xlink:href="#DejaVuSans-63" x="588.431641"/>
     <use xlink:href="#DejaVuSans-73" x="643.412109"/>
     <use xlink:href="#DejaVuSans-20" x="695.511719"/>
     <use xlink:href="#DejaVuSans-70" x="727.298828"/>
     <use xlink:href="#DejaVuSans-6f" x="790.775391"/>
     <use xlink:href="#DejaVuSans-70" x="851.957031"/>
     <use xlink:href="#DejaVuSans-75" x="915.433594"/>
     <use xlink:href="#DejaVuSans-6c" x="978.8125"/>
     <use xlink:href="#DejaVuSans-61" x="1006.595703"/>
     <use xlink:href="#DejaVuSans-72" x="1067.875"/>
     <use xlink:href="#DejaVuSans-69" x="1108.988281"/>
     <use xlink:href="#DejaVuSans-73" x="1136.771484"/>
     <use xlink:href="#DejaVuSans-65" x="1188.871094"/>
     <use xlink:href="#DejaVuSans-64" x="1250.394531"/>
    </g>
    <!-- (Accelerate) -->
    <g style="fill: #333333" transform="translate(768.398256 358.924594) scale(0.09 -0.09)">
     <use xlink:href="#DejaVuSans-28"/>
     <use xlink:href="#DejaVuSans-41" x="39.013672"/>
     <use xlink:href="#DejaVuSans-63" x="105.671875"/>
     <use xlink:href="#DejaVuSans-63" x="160.652344"/>
     <use xlink:href="#DejaVuSans-65" x="215.632812"/>
     <use xlink:href="#DejaVuSans-6c" x="277.15625"/>
     <use xlink:href="#DejaVuSans-65" x="304.939453"/>
     <use xlink:href="#DejaVuSans-72" x="366.462891"/>
     <use xlink:href="#DejaVuSans-61" x="407.576172"/>
     <use xlink:href="#DejaVuSans-74" x="468.855469"/>
     <use xlink:href="#DejaVuSans-65" x="508.064453"/>
     <use xlink:href="#DejaVuSans-29" x="569.587891"/>
    </g>
   </g>
   <g id="text_24">
    <!-- Kubernetes becomes de -->
    <g style="fill: #333333" transform="translate(805.693789 59.248219) scale(0.09 -0.09)">
     <defs>
      <path id="DejaVuSans-4b" d="M 628 4666 
L 1259 4666 
L 1259 2694 
L 3353 4666 
L 4166 4666 
L 1850 2491 
L 4331 0 
L 3500 0 
L 1259 2247 
L 1259 0 
L 628 0 
L 628 4666 
z
" transform="scale(0.015625)"/>
     </defs>
     <use xlink:href="#DejaVuSans-4b"/>
     <use xlink:href="#DejaVuSans-75" x="60.576172"/>
     <use xlink:href="#DejaVuSans-62" x="123.955078"/>
     <use xlink:href="#DejaVuSans-65" x="187.431641"/>
     <use xlink:href="#DejaVuSans-72" x="248.955078"/>
     <use xlink:href="#DejaVuSans-6e" x="288.318359"/>
     <use xlink:href="#DejaVuSans-65" x="351.697266"/>
     <use xlink:href="#DejaVuSans-74" x="413.220703"/>
     <use xlink:href="#DejaVuSans-65" x="452.429688"/>
     <use xlink:href="#DejaVuSans-73" x="513.953125"/>
     <use xlink:href="#DejaVuSans-20" x="566.052734"/>
     <use xlink:href="#DejaVuSans-62" x="597.839844"/>
     <use xlink:href="#DejaVuSans-65" x="661.316406"/>
     <use xlink:href="#DejaVuSans-63" x="722.839844"/>
     <use xlink:href="#DejaVuSans-6f" x="777.820312"/>
     <use xlink:href="#DejaVuSans-6d" x="839.001953"/>
     <use xlink:href="#DejaVuSans-65" x="936.414062"/>
     <use xlink:href="#DejaVuSans-73" x="997.9375"/>
     <use xlink:href="#DejaVuSans-20" x="1050.037109"/>
     <use xlink:href="#DejaVuSans-64" x="1081.824219"/>
     <use xlink:href="#DejaVuSans-65" x="1145.300781"/>
    </g>
    <!-- facto orchestrator -->
    <g style="fill: #333333" transform="translate(819.558008 69.32625) scale(0.09 -0.09)">
     <use xlink:href="#DejaVuSans-66"/>
     <use xlink:href="#DejaVuSans-61" x="35.205078"/>
     <use xlink:href="#DejaVuSans-63" x="96.484375"/>
     <use xlink:href="#DejaVuSans-74" x="151.464844"/>
     <use xlink:href="#DejaVuSans-6f" x="190.673828"/>
     <use xlink:href="#DejaVuSans-20" x="251.855469"/>
     <use xlink:href="#DejaVuSans-6f" x="283.642578"/>
     <use xlink:href="#DejaVuSans-72" x="344.824219"/>
     <use xlink:href="#DejaVuSans-63" x="383.6875"/>
     <use xlink:href="#DejaVuSans-68" x="438.667969"/>
     <use xlink:href="#DejaVuSans-65" x="502.046875"/>
     <use xlink:href="#DejaVuSans-73" x="563.570312"/>
     <use xlink:href="#DejaVuSans-74" x="615.669922"/>
     <use xlink:href="#DejaVuSans-72" x="654.878906"/>
     <use xlink:href="#DejaVuSans-61" x="695.992188"/>
     <use xlink:href="#DejaVuSans-74" x="757.271484"/>
     <use xlink:href="#DejaVuSans-6f" x="796.480469"/>
     <use xlink:href="#DejaVuSans-72" x="857.662109"/>
    </g>
   </g>
   <g id="text_25">
    <!-- SRE practices spread SLOs -->
    <g style="fill: #333333" transform="translate(842.734665 398.996562) scale(0.09 -0.09)">
     <use xlink:href="#DejaVuSans-53"/>
     <use xlink:href="#DejaVuSans-52" x="63.476562"/>
     <use xlink:href="#DejaVuSans-45" x="132.958984"/>
     <use xlink:href="#DejaVuSans-20" x="196.142578"/>
     <use xlink:href="#DejaVuSans-70" x="227.929688"/>
     <use xlink:href="#DejaVuSans-72" x="291.40625"/>
     <use xlink:href="#DejaVuSans-61" x="332.519531"/>
     <use xlink:href="#DejaVuSans-63" x="393.798828"/>
     <use xlink:href="#DejaVuSans-74" x="448.779297"/>
     <use xlink:href="#DejaVuSans-69" x="487.988281"/>
     <use xlink:href="#DejaVuSans-63" x="515.771484"/>
     <use xlink:href="#DejaVuSans-65" x="570.751953"/>
     <use xlink:href="#DejaVuSans-73" x="632.275391"/>
     <use xlink:href="#DejaVuSans-20" x="684.375"/>
     <use xlink:href="#DejaVuSans-73" x="716.162109"/>
     <use xlink:href="#DejaVuSans-70" x="768.261719"/>
     <use xlink:href="#DejaVuSans-72" x="831.738281"/>
     <use xlink:href="#DejaVuSans-65" x="870.601562"/>
     <use xlink:href="#DejaVuSans-61" x="932.125"/>
     <use xlink:href="#DejaVuSans-64" x="993.404297"/>
     <use xlink:href="#DejaVuSans-20" x="1056.880859"/>
     <use xlink:href="#DejaVuSans-53" x="1088.667969"/>
     <use xlink:href="#DejaVuSans-4c" x="1152.144531"/>
     <use xlink:href="#DejaVuSans-4f" x="1204.232422"/>
     <use xlink:href="#DejaVuSans-73" x="1282.943359"/>
    </g>
    <!-- &amp; Error Budgets -->
    <g style="fill: #333333" transform="translate(866.946774 409.074594) scale(0.09 -0.09)">
     <use xlink:href="#DejaVuSans-26"/>
     <use xlink:href="#DejaVuSans-20" x="77.978516"/>
     <use xlink:href="#DejaVuSans-45" x="109.765625"/>
     <use xlink:href="#DejaVuSans-72" x="172.949219"/>
     <use xlink:href="#DejaVuSans-72" x="212.3125"/>
     <use xlink:href="#DejaVuSans-6f" x="251.175781"/>
     <use xlink:href="#DejaVuSans-72" x="312.357422"/>
     <use xlink:href="#DejaVuSans-20" x="353.470703"/>
     <use xlink:href="#DejaVuSans-42" x="385.257812"/>
     <use xlink:href="#DejaVuSans-75" x="453.861328"/>
     <use xlink:href="#DejaVuSans-64" x="517.240234"/>
     <use xlink:href="#DejaVuSans-67" x="580.716797"/>
     <use xlink:href="#DejaVuSans-65" x="644.193359"/>
     <use xlink:href="#DejaVuSans-74" x="705.716797"/>
     <use xlink:href="#DejaVuSans-73" x="744.925781"/>
    </g>
   </g>
   <g id="text_26">
    <!-- GitOps adoption grows -->
    <g style="fill: #333333" transform="translate(885.729413 119.47625) scale(0.09 -0.09)">
     <defs>
      <path id="DejaVuSans-77" d="M 269 3500 
L 844 3500 
L 1563 769 
L 2278 3500 
L 2956 3500 
L 3675 769 
L 4391 3500 
L 4966 3500 
L 4050 0 
L 3372 0 
L 2619 2869 
L 1863 0 
L 1184 0 
L 269 3500 
z
" transform="scale(0.015625)"/>
     </defs>
     <use xlink:href="#DejaVuSans-47"/>
     <use xlink:href="#DejaVuSans-69" x="77.490234"/>
     <use xlink:href="#DejaVuSans-74" x="105.273438"/>
     <use xlink:href="#DejaVuSans-4f" x="144.482422"/>
     <use xlink:href="#DejaVuSans-70" x="223.193359"/>
     <use xlink:href="#DejaVuSans-73" x="286.669922"/>
     <use xlink:href="#DejaVuSans-20" x="338.769531"/>
     <use xlink:href="#DejaVuSans-61" x="370.556641"/>
     <use xlink:href="#DejaVuSans-64" x="431.835938"/>
     <use xlink:href="#DejaVuSans-6f" x="495.3125"/>
     <use xlink:href="#DejaVuSans-70" x="556.494141"/>
     <use xlink:href="#DejaVuSans-74" x="619.970703"/>
     <use xlink:href="#DejaVuSans-69" x="659.179688"/>
     <use xlink:href="#DejaVuSans-6f" x="686.962891"/>
     <use xlink:href="#DejaVuSans-6e" x="748.144531"/>
     <use xlink:href="#DejaVuSans-20" x="811.523438"/>
     <use xlink:href="#DejaVuSans-67" x="843.310547"/>
     <use xlink:href="#DejaVuSans-72" x="906.787109"/>
     <use xlink:href="#DejaVuSans-6f" x="945.650391"/>
     <use xlink:href="#DejaVuSans-77" x="1006.832031"/>
     <use xlink:href="#DejaVuSans-73" x="1088.619141"/>
    </g>
   </g>
   <g id="text_27">
    <!-- Policy as Code &amp; supply- -->
    <g style="fill: #333333" transform="translate(924.709508 348.846563) scale(0.09 -0.09)">
     <defs>
      <path id="DejaVuSans-2d" d="M 313 2009 
L 1997 2009 
L 1997 1497 
L 313 1497 
L 313 2009 
z
" transform="scale(0.015625)"/>
     </defs>
     <use xlink:href="#DejaVuSans-50"/>
     <use xlink:href="#DejaVuSans-6f" x="56.677734"/>
     <use xlink:href="#DejaVuSans-6c" x="117.859375"/>
     <use xlink:href="#DejaVuSans-69" x="145.642578"/>
     <use xlink:href="#DejaVuSans-63" x="173.425781"/>
     <use xlink:href="#DejaVuSans-79" x="228.40625"/>
     <use xlink:href="#DejaVuSans-20" x="287.585938"/>
     <use xlink:href="#DejaVuSans-61" x="319.373047"/>
     <use xlink:href="#DejaVuSans-73" x="380.652344"/>
     <use xlink:href="#DejaVuSans-20" x="432.751953"/>
     <use xlink:href="#DejaVuSans-43" x="464.539062"/>
     <use xlink:href="#DejaVuSans-6f" x="534.363281"/>
     <use xlink:href="#DejaVuSans-64" x="595.544922"/>
     <use xlink:href="#DejaVuSans-65" x="659.021484"/>
     <use xlink:href="#DejaVuSans-20" x="720.544922"/>
     <use xlink:href="#DejaVuSans-26" x="752.332031"/>
     <use xlink:href="#DejaVuSans-20" x="830.310547"/>
     <use xlink:href="#DejaVuSans-73" x="862.097656"/>
     <use xlink:href="#DejaVuSans-75" x="914.197266"/>
     <use xlink:href="#DejaVuSans-70" x="977.576172"/>
     <use xlink:href="#DejaVuSans-70" x="1041.052734"/>
     <use xlink:href="#DejaVuSans-6c" x="1104.529297"/>
     <use xlink:href="#DejaVuSans-79" x="1132.3125"/>
     <use xlink:href="#DejaVuSans-2d" x="1189.742188"/>
    </g>
    <!-- chain security -->
    <g style="fill: #333333" transform="translate(948.289508 358.924594) scale(0.09 -0.09)">
     <use xlink:href="#DejaVuSans-63"/>
     <use xlink:href="#DejaVuSans-68" x="54.980469"/>
     <use xlink:href="#DejaVuSans-61" x="118.359375"/>
     <use xlink:href="#DejaVuSans-69" x="179.638672"/>
     <use xlink:href="#DejaVuSans-6e" x="207.421875"/>
     <use xlink:href="#DejaVuSans-20" x="270.800781"/>
     <use xlink:href="#DejaVuSans-73" x="302.587891"/>
     <use xlink:href="#DejaVuSans-65" x="354.6875"/>
     <use xlink:href="#DejaVuSans-63" x="416.210938"/>
     <use xlink:href="#DejaVuSans-75" x="471.191406"/>
     <use xlink:href="#DejaVuSans-72" x="534.570312"/>
     <use xlink:href="#DejaVuSans-69" x="575.683594"/>
     <use xlink:href="#DejaVuSans-74" x="603.466797"/>
     <use xlink:href="#DejaVuSans-79" x="642.675781"/>
    </g>
    <!-- (OPA/Kyverno, SBOMs, -->
    <g style="fill: #333333" transform="translate(929.531539 369.002625) scale(0.09 -0.09)">
     <defs>
      <path id="DejaVuSans-2c" d="M 750 794 
L 1409 794 
L 1409 256 
L 897 -744 
L 494 -744 
L 750 256 
L 750 794 
z
" transform="scale(0.015625)"/>
     </defs>
     <use xlink:href="#DejaVuSans-28"/>
     <use xlink:href="#DejaVuSans-4f" x="39.013672"/>
     <use xlink:href="#DejaVuSans-50" x="117.724609"/>
     <use xlink:href="#DejaVuSans-41" x="171.652344"/>
     <use xlink:href="#DejaVuSans-2f" x="240.060547"/>
     <use xlink:href="#DejaVuSans-4b" x="273.751953"/>
     <use xlink:href="#DejaVuSans-79" x="332.078125"/>
     <use xlink:href="#DejaVuSans-76" x="391.257812"/>
     <use xlink:href="#DejaVuSans-65" x="450.4375"/>
     <use xlink:href="#DejaVuSans-72" x="511.960938"/>
     <use xlink:href="#DejaVuSans-6e" x="551.324219"/>
     <use xlink:href="#DejaVuSans-6f" x="614.703125"/>
     <use xlink:href="#DejaVuSans-2c" x="675.884766"/>
     <use xlink:href="#DejaVuSans-20" x="707.671875"/>
     <use xlink:href="#DejaVuSans-53" x="739.458984"/>
     <use xlink:href="#DejaVuSans-42" x="802.935547"/>
     <use xlink:href="#DejaVuSans-4f" x="869.789062"/>
     <use xlink:href="#DejaVuSans-4d" x="948.5"/>
     <use xlink:href="#DejaVuSans-73" x="1034.779297"/>
     <use xlink:href="#DejaVuSans-2c" x="1086.878906"/>
    </g>
    <!-- signing) -->
    <g style="fill: #333333" transform="translate(961.854898 379.080656) scale(0.09 -0.09)">
     <use xlink:href="#DejaVuSans-73"/>
     <use xlink:href="#DejaVuSans-69" x="52.099609"/>
     <use xlink:href="#DejaVuSans-67" x="79.882812"/>
     <use xlink:href="#DejaVuSans-6e" x="143.359375"/>
     <use xlink:href="#DejaVuSans-69" x="206.738281"/>
     <use xlink:href="#DejaVuSans-6e" x="234.521484"/>
     <use xlink:href="#DejaVuSans-67" x="297.900391"/>
     <use xlink:href="#DejaVuSans-29" x="361.376953"/>
    </g>
   </g>
   <g id="text_28">
    <!-- Platform Engineering &amp; -->
    <g style="fill: #333333" transform="translate(983.178756 59.248219) scale(0.09 -0.09)">
     <use xlink:href="#DejaVuSans-50"/>
     <use xlink:href="#DejaVuSans-6c" x="60.302734"/>
     <use xlink:href="#DejaVuSans-61" x="88.085938"/>
     <use xlink:href="#DejaVuSans-74" x="149.365234"/>
     <use xlink:href="#DejaVuSans-66" x="188.574219"/>
     <use xlink:href="#DejaVuSans-6f" x="223.779297"/>
     <use xlink:href="#DejaVuSans-72" x="284.960938"/>
     <use xlink:href="#DejaVuSans-6d" x="324.324219"/>
     <use xlink:href="#DejaVuSans-20" x="421.736328"/>
     <use xlink:href="#DejaVuSans-45" x="453.523438"/>
     <use xlink:href="#DejaVuSans-6e" x="516.707031"/>
     <use xlink:href="#DejaVuSans-67" x="580.085938"/>
     <use xlink:href="#DejaVuSans-69" x="643.5625"/>
     <use xlink:href="#DejaVuSans-6e" x="671.345703"/>
     <use xlink:href="#DejaVuSans-65" x="734.724609"/>
     <use xlink:href="#DejaVuSans-65" x="796.248047"/>
     <use xlink:href="#DejaVuSans-72" x="857.771484"/>
     <use xlink:href="#DejaVuSans-69" x="898.884766"/>
     <use xlink:href="#DejaVuSans-6e" x="926.667969"/>
     <use xlink:href="#DejaVuSans-67" x="990.046875"/>
     <use xlink:href="#DejaVuSans-20" x="1053.523438"/>
     <use xlink:href="#DejaVuSans-26" x="1085.310547"/>
    </g>
    <!-- Paved Roads -->
    <g style="fill: #333333" transform="translate(1006.902194 69.32625) scale(0.09 -0.09)">
     <use xlink:href="#DejaVuSans-50"/>
     <use xlink:href="#DejaVuSans-61" x="55.802734"/>
     <use xlink:href="#DejaVuSans-76" x="117.082031"/>
     <use xlink:href="#DejaVuSans-65" x="176.261719"/>
     <use xlink:href="#DejaVuSans-64" x="237.785156"/>
     <use xlink:href="#DejaVuSans-20" x="301.261719"/>
     <use xlink:href="#DejaVuSans-52" x="333.048828"/>
     <use xlink:href="#DejaVuSans-6f" x="398.03125"/>
     <use xlink:href="#DejaVuSans-61" x="459.212891"/>
     <use xlink:href="#DejaVuSans-64" x="520.492188"/>
     <use xlink:href="#DejaVuSans-73" x="583.96875"/>
    </g>
   </g>
   <g id="text_29">
    <!-- Progressive delivery -->
    <g style="fill: #333333" transform="translate(1028.672154 398.996562) scale(0.09 -0.09)">
     <use xlink:href="#DejaVuSans-50"/>
     <use xlink:href="#DejaVuSans-72" x="58.552734"/>
     <use xlink:href="#DejaVuSans-6f" x="97.416016"/>
     <use xlink:href="#DejaVuSans-67" x="158.597656"/>
     <use xlink:href="#DejaVuSans-72" x="222.074219"/>
     <use xlink:href="#DejaVuSans-65" x="260.9375"/>
     <use xlink:href="#DejaVuSans-73" x="322.460938"/>
     <use xlink:href="#DejaVuSans-73" x="374.560547"/>
     <use xlink:href="#DejaVuSans-69" x="426.660156"/>
     <use xlink:href="#DejaVuSans-76" x="454.443359"/>
     <use xlink:href="#DejaVuSans-65" x="513.623047"/>
     <use xlink:href="#DejaVuSans-20" x="575.146484"/>
     <use xlink:href="#DejaVuSans-64" x="606.933594"/>
     <use xlink:href="#DejaVuSans-65" x="670.410156"/>
     <use xlink:href="#DejaVuSans-6c" x="731.933594"/>
     <use xlink:href="#DejaVuSans-69" x="759.716797"/>
     <use xlink:href="#DejaVuSans-76" x="787.5"/>
     <use xlink:href="#DejaVuSans-65" x="846.679688"/>
     <use xlink:href="#DejaVuSans-72" x="908.203125"/>
     <use xlink:href="#DejaVuSans-79" x="949.316406"/>
    </g>
    <!-- tooling matures -->
    <g style="fill: #333333" transform="translate(1038.527154 409.074594) scale(0.09 -0.09)">
     <use xlink:href="#DejaVuSans-74"/>
     <use xlink:href="#DejaVuSans-6f" x="39.208984"/>
     <use xlink:href="#DejaVuSans-6f" x="100.390625"/>
     <use xlink:href="#DejaVuSans-6c" x="161.572266"/>
     <use xlink:href="#DejaVuSans-69" x="189.355469"/>
     <use xlink:href="#DejaVuSans-6e" x="217.138672"/>
     <use xlink:href="#DejaVuSans-67" x="280.517578"/>
     <use xlink:href="#DejaVuSans-20" x="343.994141"/>
     <use xlink:href="#DejaVuSans-6d" x="375.78125"/>
     <use xlink:href="#DejaVuSans-61" x="473.193359"/>
     <use xlink:href="#DejaVuSans-74" x="534.472656"/>
     <use xlink:href="#DejaVuSans-75" x="573.681641"/>
     <use xlink:href="#DejaVuSans-72" x="637.060547"/>
     <use xlink:href="#DejaVuSans-65" x="675.923828"/>
     <use xlink:href="#DejaVuSans-73" x="737.447266"/>
    </g>
    <!-- (canary/traffic shaping) -->
    <g style="fill: #333333" transform="translate(1021.209889 419.152625) scale(0.09 -0.09)">
     <use xlink:href="#DejaVuSans-28"/>
     <use xlink:href="#DejaVuSans-63" x="39.013672"/>
     <use xlink:href="#DejaVuSans-61" x="93.994141"/>
     <use xlink:href="#DejaVuSans-6e" x="155.273438"/>
     <use xlink:href="#DejaVuSans-61" x="218.652344"/>
     <use xlink:href="#DejaVuSans-72" x="279.931641"/>
     <use xlink:href="#DejaVuSans-79" x="321.044922"/>
     <use xlink:href="#DejaVuSans-2f" x="380.224609"/>
     <use xlink:href="#DejaVuSans-74" x="413.916016"/>
     <use xlink:href="#DejaVuSans-72" x="453.125"/>
     <use xlink:href="#DejaVuSans-61" x="494.238281"/>
     <use xlink:href="#DejaVuSans-66" x="555.517578"/>
     <use xlink:href="#DejaVuSans-66" x="590.722656"/>
     <use xlink:href="#DejaVuSans-69" x="625.927734"/>
     <use xlink:href="#DejaVuSans-63" x="653.710938"/>
     <use xlink:href="#DejaVuSans-20" x="708.691406"/>
     <use xlink:href="#DejaVuSans-73" x="740.478516"/>
     <use xlink:href="#DejaVuSans-68" x="792.578125"/>
     <use xlink:href="#DejaVuSans-61" x="855.957031"/>
     <use xlink:href="#DejaVuSans-70" x="917.236328"/>
     <use xlink:href="#DejaVuSans-69" x="980.712891"/>
     <use xlink:href="#DejaVuSans-6e" x="1008.496094"/>
     <use xlink:href="#DejaVuSans-67" x="1071.875"/>
     <use xlink:href="#DejaVuSans-29" x="1135.351562"/>
    </g>
   </g>
   <g id="text_30">
    <!-- Origins &amp; Evolution of DevOps (2001–2025) -->
    <g style="fill: #333333" transform="translate(439.841843 17.077969) scale(0.13 -0.13)">
     <defs>
      <path id="DejaVuSans-2013" d="M 313 1978 
L 2888 1978 
L 2888 1528 
L 313 1528 
L 313 1978 
z
" transform="scale(0.015625)"/>
     </defs>
     <use xlink:href="#DejaVuSans-4f"/>
     <use xlink:href="#DejaVuSans-72" x="78.710938"/>
     <use xlink:href="#DejaVuSans-69" x="119.824219"/>
     <use xlink:href="#DejaVuSans-67" x="147.607422"/>
     <use xlink:href="#DejaVuSans-69" x="211.083984"/>
     <use xlink:href="#DejaVuSans-6e" x="238.867188"/>
     <use xlink:href="#DejaVuSans-73" x="302.246094"/>
     <use xlink:href="#DejaVuSans-20" x="354.345703"/>
     <use xlink:href="#DejaVuSans-26" x="386.132812"/>
     <use xlink:href="#DejaVuSans-20" x="464.111328"/>
     <use xlink:href="#DejaVuSans-45" x="495.898438"/>
     <use xlink:href="#DejaVuSans-76" x="559.082031"/>
     <use xlink:href="#DejaVuSans-6f" x="618.261719"/>
     <use xlink:href="#DejaVuSans-6c" x="679.443359"/>
     <use xlink:href="#DejaVuSans-75" x="707.226562"/>
     <use xlink:href="#DejaVuSans-74" x="770.605469"/>
     <use xlink:href="#DejaVuSans-69" x="809.814453"/>
     <use xlink:href="#DejaVuSans-6f" x="837.597656"/>
     <use xlink:href="#DejaVuSans-6e" x="898.779297"/>
     <use xlink:href="#DejaVuSans-20" x="962.158203"/>
     <use xlink:href="#DejaVuSans-6f" x="993.945312"/>
     <use xlink:href="#DejaVuSans-66" x="1055.126953"/>
     <use xlink:href="#DejaVuSans-20" x="1090.332031"/>
     <use xlink:href="#DejaVuSans-44" x="1122.119141"/>
     <use xlink:href="#DejaVuSans-65" x="1199.121094"/>
     <use xlink:href="#DejaVuSans-76" x="1260.644531"/>
     <use xlink:href="#DejaVuSans-4f" x="1319.824219"/>
     <use xlink:href="#DejaVuSans-70" x="1398.535156"/>
     <use xlink:href="#DejaVuSans-73" x="1462.011719"/>
     <use xlink:href="#DejaVuSans-20" x="1514.111328"/>
     <use xlink:href="#DejaVuSans-28" x="1545.898438"/>
     <use xlink:href="#DejaVuSans-32" x="1584.912109"/>
     <use xlink:href="#DejaVuSans-30" x="1648.535156"/>
     <use xlink:href="#DejaVuSans-30" x="1712.158203"/>
     <use xlink:href="#DejaVuSans-31" x="1775.78125"/>
     <use xlink:href="#DejaVuSans-2013" x="1839.404297"/>
     <use xlink:href="#DejaVuSans-32" x="1889.404297"/>
     <use xlink:href="#DejaVuSans-30" x="1953.027344"/>
     <use xlink:href="#DejaVuSans-32" x="2016.650391"/>
     <use xlink:href="#DejaVuSans-35" x="2080.273438"/>
     <use xlink:href="#DejaVuSans-29" x="2143.896484"/>
    </g>
   </g>
  </g>
 </g>
 <defs>
  <clipPath id="pdfa459593b">
   <rect x="46.598781" y="31.077969" width="1070.268" height="401.2"/>
  </clipPath>
 </defs>
</svg>
